<?xml version="1.0" standalone="no"?>
<!DOCTYPE svg PUBLIC "-//W3C//DTD SVG 20010904//EN"
 "http://www.w3.org/TR/2001/REC-SVG-20010904/DTD/svg10.dtd">
<svg version="1.0" xmlns="http://www.w3.org/2000/svg"
 width="101.000000pt" height="51.000000pt" viewBox="0 0 101.000000 51.000000"
 preserveAspectRatio="xMidYMid meet">
<metadata>
Created by potrace 1.10, written by Peter Selinger 2001-2011
</metadata>
<g transform="translate(0.000000,51.000000) scale(0.100000,-0.100000)"
fill="#000000" stroke="none">
<path d="M20 365 l0 -145 45 0 c45 0 45 0 45 35 0 28 5 37 30 50 48 25 70 12
70 -41 l0 -44 46 0 47 0 -6 61 c-4 44 -11 67 -28 85 -30 32 -78 40 -117 20
-17 -9 -33 -16 -37 -16 -3 0 -5 32 -5 70 l0 70 -45 0 -45 0 0 -145z"/>
<path d="M894 496 c-31 -14 -44 -38 -44 -83 0 -18 -6 -23 -25 -23 -22 0 -25
-4 -25 -35 0 -31 3 -35 25 -35 23 0 25 -3 25 -50 l0 -50 40 0 40 0 0 50 c0 49
1 50 30 50 28 0 30 3 30 35 0 32 -2 35 -30 35 -23 0 -30 4 -30 20 0 16 7 20
36 20 35 0 35 1 32 38 -3 35 -5 37 -38 39 -19 2 -49 -3 -66 -11z"/>
<path d="M690 360 l0 -140 45 0 45 0 0 140 0 140 -45 0 -45 0 0 -140z"/>
<path d="M434 389 c-37 -10 -69 -44 -78 -81 -6 -27 -5 -28 38 -28 34 0 45 4
49 19 10 39 107 33 107 -7 0 -16 -10 -20 -59 -25 -61 -7 -111 -24 -111 -39 0
-4 59 -8 131 -8 l131 0 -4 55 c-6 67 -31 98 -93 114 -50 13 -68 13 -111 0z"/>
<path d="M30 150 c-11 -11 -20 -24 -20 -29 0 -13 41 -41 60 -41 9 0 25 -6 35
-14 16 -12 17 -16 6 -30 -18 -21 -67 -21 -80 1 -5 10 -13 14 -18 10 -11 -11
34 -47 59 -47 35 0 58 19 58 50 0 25 -5 30 -51 45 -36 12 -49 21 -47 33 5 24
59 28 75 6 7 -10 16 -14 20 -10 11 10 -35 46 -58 46 -10 0 -28 -9 -39 -20z"/>
<path d="M180 160 c0 -5 11 -10 25 -10 24 0 25 -2 25 -75 0 -43 4 -75 10 -75
6 0 10 32 10 75 0 73 1 75 25 75 14 0 25 5 25 10 0 6 -27 10 -60 10 -33 0 -60
-4 -60 -10z"/>
<path d="M370 105 c0 -73 20 -105 65 -105 45 0 65 32 65 105 0 37 -4 65 -10
65 -6 0 -10 -28 -10 -63 0 -70 -10 -87 -51 -87 -33 0 -39 14 -39 91 0 33 -4
59 -10 59 -6 0 -10 -28 -10 -65z"/>
<path d="M560 85 l0 -88 51 5 c64 7 84 26 84 83 0 57 -20 76 -84 83 l-51 5 0
-88z m104 43 c35 -49 7 -108 -50 -108 l-34 0 0 65 0 65 34 0 c25 0 39 -7 50
-22z"/>
<path d="M770 85 c0 -50 4 -85 10 -85 6 0 10 35 10 85 0 50 -4 85 -10 85 -6 0
-10 -35 -10 -85z"/>
<path d="M877 150 c-24 -19 -28 -28 -25 -68 2 -35 9 -49 29 -65 38 -28 85 -16
106 28 39 81 -42 158 -110 105z m85 -17 c40 -36 11 -113 -42 -113 -35 0 -54
23 -54 65 0 18 6 40 13 49 17 21 60 20 83 -1z"/>
</g>
</svg>
