<?xml version="1.0" standalone="no"?>
<!DOCTYPE svg PUBLIC "-//W3C//DTD SVG 20010904//EN"
 "http://www.w3.org/TR/2001/REC-SVG-20010904/DTD/svg10.dtd">
<svg version="1.0" xmlns="http://www.w3.org/2000/svg"
 width="453.000000pt" height="126.000000pt" viewBox="0 0 453.000000 126.000000"
 preserveAspectRatio="xMidYMid meet">
<metadata>
Created by potrace 1.10, written by Peter Selinger 2001-2011
</metadata>
<g transform="translate(0.000000,126.000000) scale(0.100000,-0.100000)"
fill="#000000" stroke="none">
<path d="M458 1195 c-10 -13 -18 -32 -18 -42 0 -10 -7 -29 -16 -41 -11 -17
-16 -56 -18 -170 -3 -147 -11 -184 -43 -205 -7 -4 -13 -17 -13 -27 0 -10 -6
-23 -13 -27 -21 -13 -39 -85 -24 -95 18 -12 26 -10 44 12 19 22 96 29 108 10
8 -13 52 -13 60 0 11 17 76 11 102 -10 50 -39 82 -10 44 40 -11 16 -21 36 -21
43 0 8 -7 20 -15 27 -8 7 -15 18 -15 25 0 7 -7 18 -15 25 -12 10 -15 37 -15
125 0 77 -5 124 -15 148 -8 20 -15 49 -15 65 0 16 -7 35 -15 42 -8 7 -15 19
-15 26 0 17 -31 54 -45 54 -5 0 -18 -11 -27 -25z"/>
<path d="M4287 650 c-32 -34 -37 -45 -37 -90 0 -34 6 -56 18 -68 9 -11 25 -29
35 -41 10 -12 23 -21 29 -19 24 8 18 26 -17 49 -32 22 -35 28 -35 74 0 54 22
85 69 100 24 7 24 8 6 21 -26 19 -27 19 -68 -26z"/>
<path d="M4390 670 c0 -6 14 -13 30 -17 17 -3 35 -14 41 -24 12 -23 29 -25 29
-4 0 25 -38 55 -70 55 -16 0 -30 -5 -30 -10z"/>
<path d="M4341 617 c-14 -14 -14 -97 -1 -117 9 -13 13 -11 30 10 l20 25 6 -22
c4 -13 13 -23 20 -23 19 0 30 28 17 41 -7 7 -7 20 0 40 7 18 8 32 2 38 -16 14
-82 20 -94 8z m52 -50 c-3 -5 -10 -4 -15 1 -6 6 -7 16 -3 22 6 9 9 9 16 -1 4
-7 5 -17 2 -22z"/>
<path d="M4496 575 c-8 -21 3 -45 20 -45 9 0 14 11 14 30 0 32 -23 42 -34 15z"/>
<path d="M480 550 c-24 -6 -25 -10 -24 -70 1 -60 2 -65 23 -68 13 -2 34 -1 46
2 21 5 23 9 15 37 -5 17 -6 39 -1 48 17 34 -15 63 -59 51z"/>
<path d="M1374 531 c-2 -2 -4 -17 -4 -33 0 -16 -7 -45 -15 -65 -8 -19 -15 -53
-15 -75 0 -21 -7 -55 -15 -75 -8 -19 -15 -51 -15 -70 0 -18 -6 -49 -14 -67 -8
-19 -16 -56 -18 -83 -3 -46 -2 -48 24 -51 50 -6 68 13 69 71 0 65 28 141 53
145 22 5 66 -35 66 -59 0 -9 7 -22 15 -29 8 -7 15 -20 15 -30 0 -10 7 -23 15
-30 8 -7 15 -21 15 -31 0 -22 36 -39 81 -39 36 0 37 15 4 64 -14 20 -25 43
-25 50 0 8 -7 16 -15 20 -8 3 -15 15 -15 26 0 11 -7 23 -15 26 -19 8 -20 34 0
34 26 0 91 39 112 68 24 32 36 105 25 147 -5 18 -24 40 -48 57 -36 24 -49 26
-158 30 -65 1 -120 1 -122 -1z m207 -82 c56 -22 57 -90 1 -136 -22 -18 -40
-22 -98 -23 -39 0 -74 3 -77 6 -3 4 0 16 8 28 8 11 15 40 15 63 0 76 54 98
151 62z"/>
<path d="M1963 533 c-17 -2 -37 -11 -43 -19 -7 -8 -16 -14 -21 -14 -17 0 -92
-85 -105 -120 -3 -8 -11 -28 -19 -45 -18 -40 -27 -135 -19 -196 12 -86 81
-133 194 -131 98 3 128 13 177 60 52 51 83 99 83 129 0 11 7 28 15 39 10 13
14 45 15 105 l0 86 -48 52 -47 51 -75 4 c-41 2 -89 2 -107 -1z m148 -94 l39
-31 0 -76 c0 -64 -5 -86 -27 -130 -38 -75 -88 -122 -133 -123 -103 -5 -127 8
-148 77 -8 28 -9 50 -2 75 6 18 10 48 10 65 0 17 7 37 15 44 8 7 15 17 15 23
0 15 61 77 76 77 6 0 17 7 24 15 22 27 87 19 131 -16z"/>
<path d="M2533 533 c-17 -2 -37 -11 -43 -19 -7 -8 -18 -14 -25 -14 -18 0 -105
-100 -105 -120 0 -9 -7 -26 -16 -38 -23 -33 -23 -225 0 -250 9 -10 16 -23 16
-28 1 -33 93 -58 203 -56 84 2 109 14 105 50 l-3 27 -98 -4 c-93 -3 -100 -2
-120 20 -30 32 -50 111 -37 145 6 14 10 38 10 53 0 16 7 34 15 41 8 7 15 18
15 24 0 15 55 66 97 89 36 20 101 22 139 5 23 -11 28 -10 45 11 29 35 24 57
-12 65 -33 6 -130 6 -186 -1z"/>
<path d="M2873 528 c-18 -29 -33 -86 -33 -128 0 -25 -7 -58 -15 -74 -8 -15
-15 -46 -15 -67 0 -22 -7 -56 -15 -76 -8 -19 -15 -50 -15 -69 0 -18 -5 -45
-12 -59 -10 -22 -9 -28 3 -36 52 -33 99 20 99 113 0 111 39 141 78 60 12 -26
31 -60 42 -77 11 -16 23 -37 26 -45 17 -38 48 -60 86 -60 31 0 38 4 38 19 0
10 -7 24 -15 31 -8 7 -15 17 -15 22 0 6 -13 27 -30 48 -16 21 -30 41 -30 45 0
4 -13 24 -30 45 -16 21 -30 42 -30 46 0 4 55 63 123 129 68 67 121 127 119
133 -4 12 -62 16 -97 6 -11 -3 -31 -20 -45 -38 -99 -132 -157 -196 -176 -196
-18 0 -18 37 1 70 8 14 14 38 15 53 0 16 7 45 17 64 14 30 14 36 2 44 -21 13
-67 11 -76 -3z"/>
<path d="M3470 530 l-145 -5 -6 -65 c-3 -36 -11 -75 -17 -87 -7 -12 -12 -43
-12 -70 -1 -26 -7 -59 -15 -73 -8 -14 -14 -44 -15 -68 0 -24 -7 -57 -16 -73
-8 -17 -14 -39 -12 -50 3 -20 11 -21 162 -21 155 0 160 0 178 22 12 15 15 27
9 33 -5 5 -63 8 -129 8 -74 -1 -123 2 -127 9 -3 5 1 20 9 32 9 12 16 42 16 65
0 27 5 43 13 44 6 1 54 2 105 3 l94 1 13 38 c8 23 9 39 3 43 -5 3 -51 5 -101
3 l-92 -4 -3 30 c-2 17 6 51 17 75 l20 45 112 -4 c118 -3 129 0 129 45 0 20
-21 37 -38 32 -4 -1 -72 -5 -152 -8z"/>
<path d="M3759 528 c-16 -6 -20 -15 -17 -40 l3 -33 50 4 c109 9 100 14 97 -59
-2 -36 -10 -80 -18 -99 -8 -18 -14 -52 -14 -75 0 -22 -6 -53 -14 -68 -8 -15
-16 -53 -18 -85 -3 -54 -1 -58 20 -61 13 -2 34 4 48 12 20 14 24 25 24 69 1
28 7 63 15 77 8 14 14 44 15 68 0 23 7 59 15 79 8 19 15 55 15 79 0 60 24 74
105 64 33 -4 65 -3 71 2 16 12 24 57 11 65 -14 9 -384 9 -408 1z"/>
<path d="M4463 494 c-3 -8 -17 -20 -31 -25 -24 -9 -24 -11 -9 -26 15 -15 18
-15 42 11 26 28 33 56 15 56 -6 0 -13 -7 -17 -16z"/>
<path d="M354 316 c-54 -56 -57 -63 -55 -134 1 -36 7 -72 13 -79 17 -21 4 -24
-31 -7 l-33 16 4 72 3 71 -63 3 c-55 3 -66 0 -87 -20 -14 -13 -25 -31 -25 -40
0 -9 -4 -20 -10 -23 -14 -9 -12 -47 5 -88 21 -51 19 -67 -7 -67 -13 0 -30 -5
-38 -11 -17 -11 51 -7 150 10 97 17 523 9 803 -15 45 -4 67 -2 67 5 0 6 -13
11 -28 11 -20 0 -35 9 -50 30 -12 16 -22 33 -22 38 0 4 -13 18 -30 30 -45 34
-93 29 -144 -13 -46 -37 -60 -42 -72 -24 -4 7 16 32 46 59 l53 48 -25 32 c-14
17 -43 40 -66 50 -35 16 -42 17 -53 4 -9 -11 -8 -23 6 -54 13 -28 15 -43 7
-52 -5 -7 -12 -24 -14 -38 -2 -18 -10 -26 -27 -28 -24 -4 -24 -4 -17 67 5 63
4 76 -16 111 -13 22 -28 40 -34 40 -6 0 -17 7 -24 15 -9 11 -32 15 -84 14 -66
-1 -73 -3 -102 -33z m163 -152 c13 -23 21 -49 17 -57 -16 -43 -142 -43 -158
-1 -8 21 23 80 48 93 40 20 69 9 93 -35z"/>
</g>
</svg>
