<?xml version="1.0" standalone="no"?>
<!DOCTYPE svg PUBLIC "-//W3C//DTD SVG 20010904//EN"
 "http://www.w3.org/TR/2001/REC-SVG-20010904/DTD/svg10.dtd">
<svg version="1.0" xmlns="http://www.w3.org/2000/svg"
 width="300.000000pt" height="73.000000pt" viewBox="0 0 300.000000 73.000000"
 preserveAspectRatio="xMidYMid meet">
<metadata>
Created by potrace 1.10, written by Peter Selinger 2001-2011
</metadata>
<g transform="translate(0.000000,73.000000) scale(0.050000,-0.050000)"
fill="#000000" stroke="none">
<path d="M390 1372 c-288 -131 -423 -470 -317 -795 54 -166 258 -231 458 -148
115 48 211 171 134 171 -122 0 -241 151 -202 256 9 26 17 72 17 102 0 169 207
311 454 310 143 0 161 4 140 29 -101 122 -487 165 -684 75z"/>
<path d="M5154 1305 c-31 -51 13 -147 63 -141 87 10 91 156 5 156 -33 0 -64
-7 -68 -15z"/>
<path d="M730 1167 c-79 -42 -170 -128 -170 -161 0 -34 7 -33 85 14 203 124
528 -39 589 -295 22 -91 51 -91 70 0 23 112 -44 372 -114 442 -46 46 -373 46
-460 0z"/>
<path d="M1653 1111 c-26 -20 -67 -25 -136 -17 l-98 12 6 -338 5 -338 50 -3
c97 -4 100 2 100 261 0 268 9 292 111 292 116 0 138 -50 134 -309 -4 -241 -1
-248 95 -243 l50 2 0 247 c0 270 14 303 130 303 117 0 147 -73 132 -317 l-14
-218 72 -9 c95 -11 94 -12 79 249 -17 281 -39 336 -159 406 -101 59 -140 53
-243 -37 -43 -38 -45 -37 -134 24 -100 69 -126 74 -180 33z"/>
<path d="M2639 1113 c-181 -83 -260 -265 -196 -455 101 -302 509 -278 579 33
60 268 -169 520 -383 422z m229 -195 c171 -203 -99 -460 -281 -267 -85 91 -86
156 -6 254 85 103 208 108 287 13z"/>
<path d="M3310 1110 c-159 -71 -235 -282 -171 -477 55 -167 268 -240 426 -147
326 191 87 776 -255 624z m244 -194 c90 -87 91 -178 2 -270 -124 -128 -336
-42 -336 136 0 178 204 260 334 134z"/>
<path d="M3803 791 l2 -351 77 0 78 0 -7 233 c-8 265 10 307 134 307 125 0
153 -58 153 -316 l0 -224 72 0 71 0 -6 245 c-8 281 -30 332 -177 410 -103 55
-110 55 -182 4 -32 -23 -59 -37 -60 -30 -2 6 -4 22 -5 36 -2 14 -36 28 -78 31
l-75 6 3 -351z"/>
<path d="M4430 681 l0 -461 78 0 78 0 -14 131 c-16 162 -7 178 74 128 174
-106 394 32 427 268 33 240 -226 464 -408 353 -81 -49 -109 -51 -101 -5 5 27
-10 36 -64 41 l-70 6 0 -461z m456 243 c170 -177 -84 -468 -257 -295 -67 67
-70 236 -6 305 65 69 192 64 263 -10z"/>
<path d="M5568 1109 c-327 -143 -244 -671 105 -669 125 1 327 156 327 250 0
43 -157 4 -197 -50 -94 -127 -323 -28 -323 140 0 157 225 266 314 153 79 -101
229 -95 176 7 -76 148 -268 228 -402 169z"/>
<path d="M5160 780 l0 -323 53 7 53 6 -1 310 -1 310 -52 6 -52 7 0 -323z"/>
<path d="M772 1003 c-7 -11 23 -47 66 -81 214 -170 207 -423 -19 -643 -95 -93
-98 -99 -51 -99 129 0 472 246 472 338 0 144 -216 444 -337 469 -29 5 -68 16
-86 23 -18 7 -38 4 -45 -7z"/>
<path d="M843 716 c-186 -363 -308 -439 -578 -364 -132 37 38 -90 195 -146
125 -45 164 -34 272 79 148 154 174 205 176 342 2 127 -25 165 -65 89z"/>
<path d="M4830 261 c-7 -13 -36 -32 -62 -42 -102 -39 -59 -168 51 -155 45 5
52 17 57 94 7 89 -19 146 -46 103z"/>
<path d="M5265 219 c-44 -17 -44 -79 0 -79 12 0 12 -10 -2 -27 -26 -31 -11
-53 38 -53 46 0 87 52 66 84 -9 14 -16 39 -16 54 -1 37 -30 44 -86 21z"/>
<path d="M5665 226 c-72 -14 -61 -178 13 -192 67 -13 82 -3 82 59 0 41 -7 47
-40 37 -27 -9 -40 -4 -40 16 0 20 16 25 50 19 28 -5 50 -1 50 9 0 21 -43 67
-59 63 -6 -1 -31 -6 -56 -11z"/>
<path d="M5873 227 c-20 -20 -16 -123 6 -136 10 -6 21 9 25 34 7 53 43 53 53
1 15 -77 43 -72 43 8 0 67 -8 83 -45 93 -58 16 -66 16 -82 0z"/>
<path d="M4988 170 c-15 -62 21 -110 82 -110 45 0 86 98 59 142 -26 42 -128
19 -141 -32z"/>
<path d="M5460 150 c0 -83 52 -98 72 -21 14 57 -2 91 -43 91 -20 0 -29 -22
-29 -70z"/>
</g>
</svg>
