<?xml version="1.0" standalone="no"?>
<!DOCTYPE svg PUBLIC "-//W3C//DTD SVG 20010904//EN"
 "http://www.w3.org/TR/2001/REC-SVG-20010904/DTD/svg10.dtd">
<svg version="1.0" xmlns="http://www.w3.org/2000/svg"
 width="420.000000pt" height="129.000000pt" viewBox="0 0 420.000000 129.000000"
 preserveAspectRatio="xMidYMid meet">
<metadata>
Created by potrace 1.10, written by Peter Selinger 2001-2011
</metadata>
<g transform="translate(0.000000,129.000000) scale(0.100000,-0.100000)"
fill="#000000" stroke="none">
<path d="M187 1195 c-9 -31 -17 -69 -17 -86 l0 -30 68 6 c37 3 99 6 137 8 l70
2 -3 -65 c-2 -36 -10 -77 -18 -92 -8 -15 -14 -49 -14 -75 -1 -26 -7 -59 -15
-73 -8 -14 -14 -44 -15 -68 0 -46 -29 -101 -74 -139 -31 -27 -97 -31 -116 -8
-7 8 -18 15 -25 15 -7 0 -19 9 -26 21 -19 28 -43 17 -74 -37 -14 -24 -30 -44
-35 -44 -6 0 -10 -12 -10 -26 0 -27 34 -63 61 -64 8 0 24 -7 35 -15 28 -21
226 -21 244 0 7 8 21 15 31 15 27 0 139 115 139 143 0 12 7 31 15 41 9 11 15
42 15 70 1 28 7 62 15 76 8 14 15 48 15 75 0 28 7 61 15 75 8 14 15 48 15 75
0 28 7 61 15 75 8 14 14 46 15 71 0 25 7 54 15 65 33 43 28 44 -223 44 l-238
0 -17 -55z"/>
<path d="M754 1215 c-7 -19 -14 -58 -14 -87 -1 -31 -7 -61 -15 -72 -9 -12 -15
-42 -15 -75 -1 -33 -7 -64 -15 -75 -9 -12 -15 -42 -15 -75 -1 -33 -7 -64 -15
-75 -21 -28 -21 -218 0 -236 8 -7 15 -18 15 -24 0 -17 43 -56 62 -56 9 0 21
-7 28 -15 17 -21 262 -22 279 -1 6 7 24 16 39 19 29 6 102 65 102 84 0 6 7 16
15 23 8 7 15 20 15 30 0 10 7 23 15 30 8 7 15 27 15 45 0 18 7 46 15 61 8 16
15 50 15 75 0 26 7 60 15 75 8 16 15 50 15 75 0 26 7 60 15 75 8 16 15 49 15
74 1 25 7 56 15 70 8 14 14 40 15 58 l0 32 -87 0 -88 0 -18 -58 c-9 -31 -17
-78 -17 -103 0 -25 -7 -54 -15 -65 -8 -10 -15 -41 -15 -69 0 -27 -7 -63 -15
-79 -8 -15 -15 -51 -15 -80 0 -29 -7 -59 -15 -70 -8 -11 -15 -34 -15 -52 0
-24 -10 -42 -41 -73 -39 -39 -45 -41 -100 -41 -81 0 -99 18 -99 103 1 35 7 73
15 87 8 14 15 48 15 75 0 28 7 61 15 75 8 14 15 48 15 75 0 28 7 61 15 75 8
14 14 46 15 71 0 25 7 54 15 65 8 10 15 29 15 42 0 21 -3 22 -91 22 l-90 0
-15 -35z"/>
<path d="M1447 1197 c-9 -30 -17 -74 -17 -98 -1 -24 -7 -55 -15 -69 -8 -14
-15 -47 -15 -75 0 -27 -7 -61 -15 -75 -8 -14 -15 -47 -15 -75 0 -27 -7 -61
-15 -75 -8 -14 -14 -46 -15 -71 0 -26 -7 -60 -15 -75 -8 -16 -15 -47 -15 -70
0 -22 -7 -49 -15 -60 -31 -40 -21 -45 88 -42 l102 3 5 70 c3 39 11 80 18 92 6
12 12 40 12 62 l0 41 108 0 c78 1 112 5 126 15 11 8 25 15 32 15 7 0 33 14 58
30 65 44 113 114 127 185 4 22 11 57 15 78 12 63 -43 187 -83 187 -7 0 -16 7
-19 15 -4 8 -18 15 -33 15 -14 0 -44 7 -66 15 -27 10 -84 14 -181 15 l-140 0
-17 -53z m283 -116 l55 -19 3 -68 3 -68 -51 -47 c-45 -42 -56 -47 -108 -51
-31 -3 -63 -3 -69 -1 -17 7 -16 43 2 67 8 11 15 39 15 62 0 23 6 57 14 75 7
19 16 42 19 52 8 23 48 22 117 -2z"/>
<path d="M2116 1238 c-2 -7 -8 -29 -15 -49 -6 -19 -11 -58 -11 -85 -1 -27 -7
-60 -15 -74 -8 -14 -15 -50 -15 -80 0 -32 -7 -63 -15 -74 -9 -11 -15 -42 -15
-70 0 -29 -7 -59 -15 -70 -9 -11 -15 -42 -15 -70 -1 -28 -7 -62 -15 -76 -8
-14 -14 -43 -15 -66 0 -22 -7 -49 -15 -60 -8 -10 -15 -27 -15 -37 0 -16 10
-17 103 -15 l102 3 5 65 c3 36 11 75 18 87 6 12 12 43 12 70 1 26 7 59 15 73
8 14 15 48 15 75 0 28 7 61 15 75 8 14 15 48 15 75 0 28 7 61 15 75 8 14 15
48 15 75 0 28 7 61 15 75 8 14 14 40 15 58 l0 32 -90 0 c-64 0 -92 -4 -94 -12z"/>
<path d="M2365 1238 c-2 -7 -6 -33 -8 -58 -3 -25 -7 -54 -9 -65 -3 -19 2 -20
100 -17 l103 3 -7 -73 c-3 -40 -13 -85 -20 -100 -8 -15 -14 -49 -14 -75 -1
-26 -7 -59 -15 -73 -8 -14 -15 -47 -15 -75 0 -27 -7 -61 -15 -75 -8 -14 -14
-48 -15 -75 0 -28 -6 -59 -13 -70 -20 -29 -27 -64 -14 -72 6 -4 50 -6 97 -4
102 3 110 10 110 95 1 34 7 72 15 86 8 14 15 48 15 75 0 28 7 61 15 75 8 14
15 48 15 75 0 28 7 61 15 75 8 14 15 50 15 80 1 32 8 69 19 89 l18 34 137 1
c156 2 172 -5 143 -54 -9 -15 -17 -48 -17 -72 0 -24 -7 -53 -15 -64 -8 -11
-14 -42 -15 -75 0 -33 -6 -63 -15 -75 -8 -11 -14 -42 -15 -75 0 -33 -6 -63
-15 -75 -8 -10 -15 -39 -15 -64 0 -25 -7 -56 -15 -70 -8 -14 -14 -33 -15 -42
0 -17 19 -18 256 -18 l255 0 15 36 c9 21 14 57 12 87 l-3 52 -115 -4 c-63 -2
-131 -5 -150 -5 l-35 -1 3 65 c2 36 10 75 18 87 8 12 14 46 14 75 1 29 7 64
15 78 8 14 14 45 15 70 0 25 8 67 19 95 l19 49 88 -4 c49 -3 121 -5 159 -5
l70 0 5 52 c3 29 11 58 18 65 6 6 12 20 12 30 0 17 -29 18 -610 18 -480 0
-612 -3 -615 -12z"/>
<path d="M3650 1206 c0 -24 -7 -57 -15 -72 -8 -16 -15 -50 -15 -75 0 -25 -7
-54 -15 -65 -8 -11 -15 -42 -15 -74 0 -30 -7 -66 -15 -80 -8 -14 -14 -48 -15
-76 0 -28 -6 -59 -15 -70 -8 -11 -14 -41 -15 -72 0 -29 -6 -65 -14 -80 -7 -15
-16 -51 -19 -79 l-6 -53 94 0 95 0 0 48 c1 26 7 58 15 72 8 14 14 47 15 73 0
27 7 70 16 98 13 39 21 49 38 49 27 0 66 -39 66 -66 0 -11 7 -29 15 -40 8 -10
15 -39 15 -64 0 -25 7 -54 15 -64 8 -11 15 -39 15 -62 l0 -43 101 -3 c59 -2
104 1 109 7 11 14 1 62 -16 76 -8 6 -14 28 -14 48 0 20 -7 45 -15 55 -8 11
-15 34 -15 52 0 17 -7 37 -15 44 -8 7 -15 20 -15 30 0 9 -9 27 -20 40 -23 27
-16 41 33 60 39 16 107 78 107 100 0 8 7 24 15 34 24 31 20 146 -6 196 -12 22
-27 40 -34 40 -7 0 -18 7 -25 15 -7 8 -23 15 -35 15 -12 0 -39 7 -58 15 -27
11 -76 15 -187 15 l-150 0 0 -44z m254 -120 c73 -22 93 -60 59 -114 -24 -37
-33 -44 -73 -64 -51 -24 -106 -30 -121 -12 -9 11 -8 24 6 61 9 27 19 66 22 88
8 59 25 65 107 41z"/>
<path d="M3301 897 c-5 -12 -10 -47 -12 -77 l-4 -55 88 0 c50 0 92 4 95 10 15
23 32 82 32 113 l0 32 -95 0 c-90 0 -96 -1 -104 -23z"/>
<path d="M676 173 c-3 -4 -6 -18 -6 -33 0 -14 -4 -30 -10 -36 -5 -5 -13 -31
-16 -57 l-7 -47 52 0 c47 0 56 4 87 35 63 65 36 140 -52 143 -23 0 -45 -2 -48
-5z m85 -71 c6 -27 2 -38 -18 -58 -33 -34 -57 -28 -61 15 -3 24 3 40 19 57 30
32 52 27 60 -14z"/>
<path d="M964 159 c-14 -16 -19 -37 -20 -90 l0 -69 48 0 c26 0 48 5 48 10 0 6
-14 10 -31 10 -27 0 -30 3 -27 27 2 22 9 29 33 33 38 7 38 23 0 30 -44 8 -36
25 13 28 34 3 43 7 40 20 -5 27 -80 27 -104 1z"/>
<path d="M1193 173 c-16 -6 -17 -98 -2 -142 8 -23 17 -31 35 -31 17 0 24 6 24
20 0 11 6 20 14 20 8 0 19 12 25 28 13 32 32 64 45 73 5 4 6 15 2 24 -6 15 -9
16 -28 3 -12 -8 -25 -21 -28 -29 -4 -8 -12 -24 -18 -36 -7 -13 -12 -30 -12
-39 0 -8 -6 -14 -12 -11 -9 2 -12 20 -10 54 4 50 -10 75 -35 66z"/>
<path d="M1449 173 c-27 -7 -39 -81 -19 -113 8 -12 11 -12 28 3 10 9 28 17 40
17 13 0 22 6 22 15 0 9 -9 15 -25 15 -16 0 -25 6 -25 15 0 11 11 15 41 15 33
0 40 3 37 18 -2 12 -14 17 -43 18 -22 1 -47 0 -56 -3z"/>
<path d="M1923 173 c-7 -2 -13 -11 -13 -19 0 -8 -9 -22 -20 -31 -26 -23 -27
-84 -2 -106 32 -29 79 -21 118 18 40 42 46 93 14 125 -19 19 -67 26 -97 13z
m69 -69 c3 -28 -1 -43 -17 -60 -24 -26 -54 -32 -56 -11 -5 60 17 107 51 107
13 0 19 -10 22 -36z"/>
<path d="M2143 164 c-3 -8 -3 -26 0 -41 3 -16 -3 -41 -14 -62 -24 -46 -24 -61
1 -61 13 0 20 7 20 20 0 14 9 21 35 26 19 3 35 10 35 15 0 4 12 14 28 21 28
14 40 51 23 77 -13 19 -120 24 -128 5z m87 -43 c0 -10 -7 -24 -15 -31 -21 -17
-39 1 -30 29 8 27 45 28 45 2z"/>
<path d="M2417 174 c-4 -4 -7 -20 -7 -35 0 -15 -5 -29 -11 -31 -14 -5 -22 -79
-11 -97 17 -24 32 -2 32 45 0 32 4 44 13 42 6 -3 13 -14 15 -26 4 -29 30 -28
34 1 5 38 23 24 26 -21 5 -70 26 -45 34 39 3 40 4 77 2 81 -10 16 -35 7 -43
-15 -10 -25 -40 -55 -42 -41 -1 5 -2 20 -2 34 -2 24 -26 38 -40 24z"/>
<path d="M2710 172 c-8 -3 -18 -10 -22 -16 -11 -16 -9 -78 2 -96 8 -12 11 -12
28 3 10 9 28 17 40 17 13 0 22 6 22 15 0 9 -9 15 -25 15 -16 0 -25 6 -25 15 0
10 10 15 34 15 35 0 58 16 34 25 -25 8 -73 12 -88 7z"/>
<path d="M2897 174 c-4 -4 -7 -18 -7 -30 0 -13 -4 -25 -9 -28 -13 -8 -22 -64
-15 -92 10 -39 28 -22 34 30 6 52 22 62 31 19 13 -60 21 -74 43 -71 31 4 30
30 -2 79 -17 24 -32 55 -33 69 -4 24 -28 38 -42 24z"/>
<path d="M2985 168 c-7 -18 9 -71 22 -75 13 -5 29 60 18 76 -9 15 -35 14 -40
-1z"/>
<path d="M3153 174 c-16 -7 -17 -31 -1 -36 15 -5 11 -97 -4 -116 -16 -19 -1
-27 26 -14 25 11 44 67 33 96 -7 17 12 36 36 36 12 0 17 6 15 18 -2 13 -14 17
-48 19 -25 1 -51 0 -57 -3z"/>
<path d="M1681 161 c-11 -7 -15 -32 -17 -85 l-2 -76 49 0 c52 0 68 16 22 22
-27 3 -28 5 -25 53 2 28 8 54 13 60 26 26 -6 47 -40 26z"/>
<path d="M2660 21 c0 -19 6 -21 61 -21 63 0 73 14 17 23 -18 3 -43 8 -55 12
-19 6 -23 4 -23 -14z"/>
<path d="M1410 16 c0 -13 11 -16 55 -16 30 0 55 5 55 10 0 6 -8 10 -17 10 -10
0 -35 3 -55 6 -31 5 -38 4 -38 -10z"/>
</g>
</svg>
