<?xml version="1.0" standalone="no"?>
<!DOCTYPE svg PUBLIC "-//W3C//DTD SVG 20010904//EN"
 "http://www.w3.org/TR/2001/REC-SVG-20010904/DTD/svg10.dtd">
<svg version="1.0" xmlns="http://www.w3.org/2000/svg"
 width="146.000000pt" height="36.000000pt" viewBox="0 0 146.000000 36.000000"
 preserveAspectRatio="xMidYMid meet">
<metadata>
Created by potrace 1.10, written by Peter Selinger 2001-2011
</metadata>
<g transform="translate(0.000000,36.000000) scale(0.100000,-0.100000)"
fill="#000000" stroke="none">
<path d="M35 335 c-62 -61 10 -155 86 -114 48 25 44 105 -7 128 -37 16 -52 14
-79 -14z"/>
<path d="M410 300 c0 -11 5 -20 10 -20 6 0 10 -40 10 -100 0 -82 -3 -100 -15
-100 -8 0 -15 -7 -15 -15 0 -11 12 -15 50 -15 38 0 50 4 50 15 0 8 -7 15 -15
15 -12 0 -15 15 -15 75 0 41 3 75 8 75 4 0 20 -36 35 -81 37 -102 51 -102 91
4 16 42 33 77 38 77 4 0 8 -34 8 -75 0 -60 -3 -75 -15 -75 -8 0 -15 -7 -15
-15 0 -12 13 -15 55 -15 42 0 55 3 55 15 0 8 -7 15 -15 15 -12 0 -15 18 -15
100 0 82 3 100 15 100 8 0 15 9 15 20 0 17 -7 20 -44 20 l-44 0 -31 -81 c-17
-44 -31 -85 -31 -90 0 -5 -4 -9 -8 -9 -5 0 -21 41 -36 90 l-27 90 -49 0 c-43
0 -50 -3 -50 -20z"/>
<path d="M810 200 c-26 -75 -48 -120 -56 -120 -8 0 -14 -7 -14 -15 0 -11 12
-15 50 -15 38 0 50 4 50 15 0 8 -7 15 -16 15 -9 0 -14 7 -12 17 2 14 15 19 49
21 40 3 47 0 52 -18 3 -13 0 -20 -9 -20 -8 0 -14 -7 -14 -15 0 -12 13 -15 55
-15 56 0 69 11 41 34 -7 6 -30 62 -51 124 -33 99 -39 112 -60 112 -20 0 -27
-14 -65 -120z m74 -3 l14 -47 -35 0 c-38 0 -39 6 -13 76 13 33 16 30 34 -29z"/>
<path d="M1020 300 c0 -11 5 -20 10 -20 6 0 10 -40 10 -100 0 -60 -4 -100 -10
-100 -5 0 -10 -7 -10 -15 0 -12 13 -15 55 -15 42 0 55 3 55 15 0 8 -7 15 -15
15 -11 0 -15 11 -15 40 0 59 26 52 55 -15 23 -52 27 -55 60 -55 38 0 44 10 19
38 -8 9 -26 33 -38 53 -23 35 -23 36 -4 48 10 6 24 23 30 36 24 54 -40 95
-149 95 -46 0 -53 -3 -53 -20z m138 -43 c12 -24 11 -31 -2 -53 -9 -13 -25 -24
-36 -24 -18 0 -20 7 -20 56 0 52 1 55 22 52 13 -2 29 -15 36 -31z"/>
<path d="M1330 302 c-71 -35 -64 -104 14 -141 52 -24 65 -43 45 -67 -18 -22
-62 -14 -74 14 -16 37 -37 27 -33 -15 3 -37 4 -38 45 -41 55 -4 111 20 118 51
13 50 2 71 -50 98 -53 27 -68 56 -41 78 20 17 56 4 56 -20 0 -13 7 -19 21 -19
18 0 20 4 14 33 -4 17 -13 35 -19 39 -19 13 -59 9 -96 -10z"/>
<path d="M213 248 c-12 -6 -27 -23 -33 -37 -30 -74 64 -136 118 -78 55 59 -13
151 -85 115z"/>
<path d="M53 150 c-46 -19 -57 -83 -20 -118 43 -41 109 -19 123 40 5 22 0 33
-24 58 -32 31 -43 34 -79 20z"/>
</g>
</svg>
