<?xml version="1.0" encoding="utf-8"?>
<!-- Generator: Avocode 2.4.5 - http://avocode.com -->
<svg height="59" width="105" xmlns:xlink="http://www.w3.org/1999/xlink" xmlns="http://www.w3.org/2000/svg" viewBox="0 0 105 59">
    <text font-weight="700" font-size="30" font-family="Oswald" fill="#ffffff" y="51" x="44">
        <tspan>MAK</tspan>
    </text>
    <path fill="#ffe600" fill-rule="evenodd" d="M 38.63 26.63 C 38.63 26.63 38.63 27.26 38.63 27.26 C 38.63 27.26 38.63 28.09 38.63 28.09 C 38.63 28.09 37.81 28.2 37.81 28.2 C 37.81 28.2 29.6 29.34 29.6 29.34 C 29.6 29.34 28.52 29.49 28.52 29.49 C 28.52 29.49 28.52 28.4 28.52 28.4 C 28.52 28.22 28.53 27.95 28.55 27.59 C 28.57 27.26 28.58 27.01 28.58 26.8 C 28.58 26.33 28.55 25.87 28.49 25.44 C 28.42 25.01 28.31 24.59 28.17 24.17 C 28.06 23.85 27.9 23.61 27.69 23.44 C 27.51 23.29 27.3 23.23 27.02 23.23 C 26.47 23.23 26.11 23.41 25.85 23.82 C 25.51 24.35 25.35 24.98 25.35 25.73 C 25.35 26.44 25.46 27.1 25.67 27.71 C 25.89 28.31 26.22 28.89 26.67 29.42 C 27.16 30 27.61 30.49 28.02 30.87 C 28.44 31.27 29.01 31.75 29.71 32.32 C 30.47 32.94 30.99 33.37 31.31 33.66 C 32.44 34.66 33.43 35.63 34.22 36.52 C 35.02 37.42 35.79 38.45 36.5 39.58 C 37.23 40.75 37.79 42.03 38.15 43.38 C 38.51 44.72 38.7 46.19 38.7 47.73 C 38.7 50.76 37.6 53.27 35.43 55.21 C 33.3 57.11 30.67 58.08 27.63 58.08 C 25.68 58.08 23.91 57.71 22.38 56.98 C 20.83 56.25 19.56 55.24 18.6 53.97 C 17.68 52.74 16.96 51.36 16.46 49.87 C 15.97 48.4 15.68 46.8 15.61 45.11 C 15.61 45.11 15.57 44.29 15.57 44.29 C 15.57 44.29 16.37 44.14 16.37 44.14 C 16.37 44.14 24.44 42.59 24.44 42.59 C 24.44 42.59 25.57 42.37 25.57 42.37 C 25.57 42.37 25.57 43.52 25.57 43.52 C 25.57 44.31 25.58 45.01 25.61 45.59 C 25.64 46.17 25.71 46.8 25.82 47.48 C 25.93 48.11 26.08 48.63 26.25 49.01 C 26.4 49.34 26.61 49.61 26.88 49.83 C 27.1 50 27.35 50.09 27.65 50.09 C 28.18 50.09 29.06 50.09 29.06 48.02 C 29.06 45.56 27.61 43.04 24.73 40.52 C 24.73 40.52 22.28 38.43 22.28 38.43 C 21.5 37.78 20.85 37.22 20.36 36.76 C 19.87 36.3 19.29 35.67 18.64 34.91 C 17.96 34.12 17.42 33.33 17.03 32.58 C 17 32.52 16.97 32.45 16.94 32.39 C 16.94 32.39 16.79 32.6 16.79 32.6 C 16.79 32.6 5.34 27.16 5.34 27.16 C 5.34 27.16 4.85 26.75 5.49 26.71 C 6.13 26.67 10.32 27.86 11.88 27.8 C 12.75 27.73 14.25 27.28 13.41 25.6 C 12.73 24.51 11.64 23.38 9.17 21.75 C 8.93 21.61 8.74 21.05 9.48 21.3 C 10.21 21.54 14.14 23.74 15.72 23.14 C 15.82 23.08 15.97 22.98 16.14 22.84 C 16.34 22.15 16.6 21.5 16.93 20.89 C 16.9 20.27 16.68 19.52 16.12 18.6 C 14.29 15.65 12.75 13.43 11.24 11.36 C 11.18 11.14 11.21 10.98 11.33 10.99 C 11.4 10.98 11.49 10.99 11.6 11.02 C 13.67 12.52 15.89 14.07 18.84 15.89 C 19.8 16.48 20.58 16.7 21.21 16.7 C 21.8 16.39 22.42 16.13 23.07 15.92 C 23.22 15.75 23.32 15.6 23.38 15.49 C 23.98 13.92 21.78 9.98 21.53 9.25 C 21.29 8.52 21.85 8.7 21.98 8.95 C 23.62 11.41 24.75 12.5 25.84 13.18 C 27.51 14.03 27.97 12.52 28.04 11.66 C 28.1 10.1 26.91 5.9 26.95 5.26 C 26.99 4.62 27.4 5.11 27.4 5.11 C 27.4 5.11 32.8 16.48 32.8 16.48 C 33.75 16.99 34.64 17.66 35.45 18.49 C 37.58 20.65 38.65 23.28 38.65 26.32 C 38.65 26.32 38.65 26.36 38.65 26.36 C 38.65 26.36 38.65 26.39 38.65 26.39 C 38.65 26.39 38.63 26.63 38.63 26.63 Z M 24.75 3.46 C 24.15 2.86 24.15 1.88 24.75 1.28 C 25.35 0.68 26.33 0.68 26.93 1.28 C 27.53 1.88 27.53 2.86 26.93 3.46 C 26.33 4.07 25.35 4.07 24.75 3.46 Z M 19.22 8.02 C 18.62 7.41 18.62 6.43 19.22 5.83 C 19.82 5.23 20.8 5.23 21.4 5.83 C 22 6.43 22 7.41 21.4 8.02 C 20.8 8.62 19.82 8.62 19.22 8.02 Z M 8.1 10.25 C 7.5 9.65 7.5 8.67 8.1 8.07 C 8.7 7.47 9.68 7.47 10.28 8.07 C 10.89 8.67 10.89 9.65 10.28 10.25 C 9.68 10.86 8.71 10.86 8.1 10.25 Z M 8.21 20.86 C 7.61 21.46 6.64 21.46 6.03 20.86 C 5.43 20.26 5.43 19.28 6.03 18.68 C 6.64 18.08 7.61 18.08 8.21 18.68 C 8.82 19.28 8.82 20.26 8.21 20.86 Z M 1.35 26.15 C 0.75 25.54 0.75 24.57 1.35 23.97 C 1.95 23.36 2.93 23.36 3.53 23.97 C 4.13 24.57 4.13 25.54 3.53 26.15 C 2.93 26.75 1.95 26.75 1.35 26.15 Z" />
</svg>