<?xml version="1.0" encoding="utf-8"?>
<!-- Generator: Avocode 2.4.5 - http://avocode.com -->
<svg height="36" width="146" xmlns:xlink="http://www.w3.org/1999/xlink" xmlns="http://www.w3.org/2000/svg" viewBox="0 0 146 36">
    <path fill="#707070" fill-rule="evenodd" d="M 141.3 12.2 C 141.3 12.2 140.44 8.69 140.44 8.69 C 140.38 8.51 140.32 8.35 140.17 8.2 C 139.57 7.7 138.7 7.08 137.81 7.08 C 136.74 7.08 135.82 7.7 135.09 8.25 C 134.7 8.55 133.81 9.41 133.81 10.95 C 133.81 13.31 134.92 13.81 138.8 15.15 C 143.46 16.77 145.45 18.98 145.45 22.57 C 145.45 25.13 144.4 27.43 142.56 28.89 C 140.6 30.45 138.1 30.92 134.29 30.92 C 134.29 30.92 134.16 30.92 134.16 30.92 C 132.73 30.92 129.87 31.02 128.12 30.45 C 127.83 28.21 127.58 26 127.33 23.83 C 127.33 23.83 127.06 23.36 127.06 23.36 C 128.28 23.1 129.77 22.88 130.87 22.73 C 130.87 22.73 131.93 26.51 131.93 26.51 C 132.03 26.82 132.17 27.03 132.36 27.13 C 133.14 27.68 134.15 28.01 135.3 28.01 C 136.28 28.01 137.62 27.73 138.44 27.04 C 139.19 26.45 139.59 25.56 139.59 24.49 C 139.59 22.09 138.26 21.6 135.07 20.4 C 130.34 18.62 127.94 15.99 127.94 12.61 C 127.94 9.59 129.62 7.63 130.62 6.73 C 132.41 5.08 135.44 3.99 139.13 3.99 C 141.47 3.99 143.34 4.49 144.24 4.8 C 144.46 7.09 144.87 9.46 145.03 11.79 C 143.99 11.94 142.6 12.05 141.46 12.18 C 141.46 12.18 141.3 12.2 141.3 12.2 Z M 124.3 30.94 C 123.73 30.94 123.5 30.96 123.11 30.96 C 122.63 30.96 121.4 30.97 120.27 30.98 C 119.4 30.99 118.53 30.93 118.05 30.94 C 118.05 30.94 117.2 29.47 117.2 29.47 C 116.27 27.75 115.38 25.52 114.46 23.32 C 114.46 23.32 114.09 22.46 114.09 22.46 C 113.52 21.09 112.98 19.95 111.79 19.95 C 111.3 19.95 110.6 19.89 110.4 19.96 C 110.4 19.96 110.13 20.62 110.13 20.62 C 110.13 20.62 110 20.91 110 20.91 C 110 20.91 109.95 27.47 109.95 27.47 C 109.95 27.47 110.08 27.99 110.08 27.99 C 110.08 27.99 110.47 28.01 110.47 28.01 C 110.47 28.01 112.98 27.99 112.98 27.99 C 112.96 28.88 112.96 30.09 112.96 30.98 C 112.96 30.98 106.87 31.01 106.87 31.01 C 106.87 31.01 102.05 30.95 102.05 30.95 C 102.07 30.06 102.05 28.88 102.05 27.99 C 102.05 27.99 103.62 28.01 103.62 28.01 C 103.92 28.01 104.13 27.74 104.13 27.48 C 104.13 27.48 103.95 9.96 103.95 9.96 C 103.95 9.96 103.98 8 103.98 8 C 103.98 8 103.68 7.98 103.68 7.98 C 103.68 7.98 102.03 7.94 102.03 7.94 C 102.03 7.02 102.01 4.9 102.03 4 C 105.64 3.95 108.57 3.99 111.11 3.99 C 113.42 3.99 114.69 4.55 117.09 5.12 C 120.54 5.88 122.95 9 122.95 11.44 C 122.95 14.5 120.9 16.96 117.81 18.25 C 117.81 18.25 117.55 18.35 117.55 18.35 C 117.55 18.35 117.55 18.63 117.55 18.63 C 117.55 18.63 117.55 18.88 117.55 18.88 C 117.55 18.88 117.55 19.14 117.55 19.14 C 117.55 19.14 117.78 19.25 117.78 19.25 C 119.31 19.98 120.24 21.93 121.77 25.14 C 121.77 25.14 122.26 26.16 122.26 26.16 C 122.67 27.09 123.04 27.82 123.83 27.89 C 123.83 27.89 124.91 28.06 124.91 28.06 C 124.91 28.49 124.99 29 124.98 29.44 C 124.97 29.89 124.96 30.5 124.96 30.95 C 124.64 30.95 124.68 30.93 124.3 30.94 Z M 111.93 7.09 C 111.22 7.09 110.8 7.13 110.49 7.23 C 110.49 7.23 110.21 7.32 110.21 7.32 C 110.21 7.32 109.92 7.65 109.92 7.65 C 109.92 7.65 110 17.3 110 17.3 C 110 17.3 110.12 17.75 110.12 17.75 C 110.12 17.75 110.43 17.98 110.43 17.98 C 110.65 18.04 111.03 18.04 111.65 18.04 C 114.56 18.04 116.39 15.83 116.39 12.77 C 116.39 9.59 114.43 7.09 111.93 7.09 Z M 99.92 30.96 C 99.92 30.96 95.6 30.99 95.6 30.99 C 95.6 30.99 89.01 30.99 89.01 30.99 C 89.01 30.09 88.98 28.94 89 28.03 C 89 28.03 90.97 27.93 90.97 27.93 C 91.12 27.93 91.28 27.84 91.38 27.7 C 91.49 27.55 91.52 27.36 91.45 27.18 C 91.38 26.96 91.29 26.66 91.19 26.33 C 91 25.7 90.79 25 90.62 24.58 C 90.58 24.4 90.41 23.96 89.95 23.96 C 89.95 23.96 82.31 23.98 82.31 23.98 C 82.31 23.98 81.98 24.2 81.98 24.2 C 81.98 24.2 81.91 24.52 81.91 24.52 C 81.83 24.88 81.73 25.28 81.63 25.69 C 81.47 26.31 81.31 26.95 81.21 27.48 C 81.21 27.48 81.12 27.94 81.12 27.94 C 81.12 27.94 81.59 27.97 81.59 27.97 C 81.59 27.97 83.98 28.03 83.98 28.03 C 83.98 28.91 83.94 30.1 83.92 30.99 C 83.92 30.99 78.1 30.99 78.1 30.99 C 78.1 30.99 73.99 30.99 73.99 30.99 C 74 30.1 74.1 28.91 74.14 28.03 C 74.14 28.03 75.98 27.97 75.98 27.97 C 76.22 27.97 76.5 27.76 76.59 27.48 C 79.23 20.44 82.84 10.27 85.13 4.03 C 85.96 3.97 87.7 4 90.19 4 C 91.52 7.86 93.09 12.91 94.61 17.47 C 95.84 21.14 97.02 24.71 98.03 27.65 C 98.03 27.65 98.11 27.91 98.11 27.91 C 98.11 27.91 98.38 27.93 98.38 27.93 C 98.38 27.93 100.03 28.06 100.03 28.06 C 100.03 28.94 100.01 29.52 99.99 30.41 C 99.99 30.41 99.92 30.96 99.92 30.96 Z M 88.95 18.99 C 88.36 17.13 88.41 16.94 87.75 14.72 C 87.43 13.66 87.11 12.59 86.79 11.53 C 86.79 11.53 86.7 11.24 86.7 11.24 C 86.7 11.24 86.4 11.24 86.4 11.24 C 86.4 11.24 86.2 11.24 86.2 11.24 C 86.2 11.24 85.89 11.24 85.89 11.24 C 85.89 11.24 85.8 11.53 85.8 11.53 C 85.23 13.39 84.64 15.33 84.07 17.2 C 84.07 17.2 83.28 19.02 83.28 19.02 C 83.24 19.16 82.9 21.1 83.06 21.3 C 83.06 21.3 83.09 21 83.09 21 C 83.09 21 83.63 21 83.63 21 C 83.63 21 88.93 21 88.93 21 C 88.93 21 89.62 21.03 89.62 21.03 C 89.62 21.03 88.95 18.99 88.95 18.99 Z M 70.04 27.98 C 70.04 27.98 70.6 27.97 70.6 27.97 C 70.6 27.97 73.02 27.97 73.02 27.97 C 73.02 28.83 73.01 30.08 72.99 30.96 C 72.99 30.96 72.25 30.99 72.25 30.99 C 72.25 30.99 67.7 30.96 67.7 30.96 C 67.7 30.96 62.01 30.99 62.01 30.99 C 62.01 30.56 61.99 29.69 62 29.23 C 62.01 28.78 62.04 28.4 62.05 27.98 C 62.05 27.98 64.28 27.97 64.28 27.97 C 64.28 27.97 64.29 27.97 64.29 27.97 C 64.35 27.97 64.98 27.93 64.98 27.39 C 64.98 27.39 65.04 26.55 65.04 26.55 C 65 22.42 64.99 18.59 65.01 13.74 C 65.01 13.74 65 12.95 65 12.95 C 65 12.95 64.22 12.98 64.22 12.98 C 64.22 12.98 63.89 12.98 63.89 12.98 C 63.89 12.98 63.6 12.98 63.6 12.98 C 63.6 12.98 63.5 13.26 63.5 13.26 C 61.12 20.09 59.11 24.65 57.26 28.97 C 57.01 28.98 56.69 28.98 56.32 28.99 C 55.68 29 54.9 28.98 54.21 28.98 C 52.14 24.03 50.76 20.75 48.58 14.13 C 48.58 14.13 48.17 12.98 48.17 12.98 C 48.17 12.98 47.78 12.98 47.78 12.98 C 47.78 12.98 47.41 12.98 47.41 12.98 C 47.41 12.98 47 12.94 47 12.94 C 47 12.94 46.96 13.41 46.96 13.41 C 46.9 17.1 47.03 19.23 46.99 20.99 C 46.95 23.17 47.03 25.33 46.99 27.51 C 46.99 27.51 47.05 27.97 47.05 27.97 C 47.05 27.97 47.66 27.99 47.66 27.99 C 47.66 27.99 50.04 28.04 50.04 28.04 C 50.04 28.9 49.97 30.1 49.94 30.98 C 49.94 30.98 44.61 31.01 44.61 31.01 C 44.61 31.01 40 31.01 40 31.01 C 40 31.01 40.03 28.04 40.03 28.04 C 40.03 28.04 42.57 27.97 42.57 27.97 C 42.57 27.97 42.65 27.97 42.65 27.97 C 42.65 27.97 42.73 27.93 42.73 27.93 C 43.02 27.78 43.08 27.56 43.08 27.39 C 43.12 21.84 42.92 15.31 43.01 9.11 C 43.01 9.11 43.04 7.96 43.04 7.96 C 43.04 7.96 42.56 8.01 42.56 8.01 C 42.56 8.01 40.99 7.96 40.99 7.96 C 40.99 7.48 41.03 6.53 41.04 6.02 C 41.04 5.53 41.02 4.52 41.02 4.06 C 41.02 4.06 50.96 4.02 50.96 4.02 C 52.17 7.31 54.38 15.1 56.18 20.41 C 56.18 20.41 56.48 21.3 56.48 21.3 C 56.48 21.3 56.58 21.58 56.58 21.58 C 56.58 21.58 56.87 21.58 56.87 21.58 C 56.87 21.58 57.2 21.58 57.2 21.58 C 57.2 21.58 57.49 21.58 57.49 21.58 C 57.49 21.58 57.59 21.3 57.59 21.3 C 58.37 19.1 59.2 16.73 60.02 14.38 C 61.25 10.88 62.97 6.81 63.98 3.99 C 63.98 3.99 72.99 4.02 72.99 4.02 C 72.99 4.48 73.01 5.63 73.01 6.11 C 73 6.62 72.99 7.44 72.98 7.93 C 72.98 7.93 70.47 7.93 70.47 7.93 C 70.47 7.93 70.4 7.97 70.4 7.97 C 70.12 7.97 69.92 8.59 69.92 8.91 C 69.95 11.99 69.99 14.68 70 18.11 C 70.01 21.31 69.99 23.03 70.01 26.05 C 70.01 26.05 70.04 27.98 70.04 27.98 Z M 24.72 25.29 C 20.54 25.29 17.15 21.88 17.15 17.68 C 17.15 13.47 20.54 10.06 24.72 10.06 C 28.9 10.06 32.3 13.47 32.3 17.68 C 32.3 21.88 28.9 25.29 24.72 25.29 Z M 8.25 35.39 C 4.07 35.39 0.68 31.97 0.68 27.77 C 0.68 23.56 4.07 20.15 8.25 20.15 C 12.43 20.15 15.82 23.56 15.82 27.77 C 15.82 31.97 12.43 35.39 8.25 35.39 Z M 8.25 15.2 C 4.07 15.2 0.68 11.79 0.68 7.58 C 0.68 3.38 4.07 -0.03 8.25 -0.03 C 12.43 -0.03 15.82 3.38 15.82 7.58 C 15.82 11.79 12.43 15.2 8.25 15.2 Z" />
</svg>