<?xml version="1.0" encoding="utf-8"?>
<!-- Generator: Avocode 2.4.5 - http://avocode.com -->
<svg height="52" width="101" xmlns:xlink="http://www.w3.org/1999/xlink" xmlns="http://www.w3.org/2000/svg" viewBox="0 0 101 52">
    <path fill="#707070" fill-rule="evenodd" d="M 97.31 7.98 C 96.8 7.94 96.32 8.01 95.75 8.01 C 94.56 8.01 93.76 8.09 93.64 8.23 C 93.44 8.48 92.99 8.77 92.99 10.51 C 92.99 10.51 92.99 11.99 92.99 11.99 C 92.99 11.99 99 11.99 99 11.99 C 99 11.99 99 18.97 99 18.97 C 99 18.97 92.99 19 92.99 19 C 92.99 19 92.99 29.01 92.99 29.01 C 92.99 29.01 85 29.04 85 29.04 C 85 29.04 85 19 85 19 C 85 19 80.02 18.97 80.02 18.97 C 80.02 18.97 79.99 11.96 79.99 11.96 C 79.99 11.96 84.96 11.99 84.96 11.99 C 84.96 11.99 85 10.2 85 10.2 C 85 6.54 85.13 4.64 86.82 2.81 C 88.54 0.94 91.17 0 94.62 0 C 95.6 0 96.47 0.03 97.23 0.1 C 98.02 0.16 98.73 0.26 99.38 0.39 C 99.38 0.39 99.95 0.64 99.95 0.64 C 99.95 0.64 99.95 8 99.95 8 C 99.95 8 98.95 7.96 98.95 7.96 C 98.44 7.9 97.85 8.03 97.31 7.98 Z M 77.04 34.04 C 77.04 34.04 78.96 34.01 78.96 34.01 C 78.96 34.01 79.02 50.93 79.02 50.93 C 79.02 50.93 77 50.96 77 50.96 C 77 50.96 77.04 34.04 77.04 34.04 Z M 69 1.05 C 69 1.05 78.01 1.02 78.01 1.02 C 78.01 1.02 78.01 28.98 78.01 28.98 C 78.01 28.98 69 28.94 69 28.94 C 69 28.94 69 1.05 69 1.05 Z M 61.57 50.96 C 61.57 50.96 55.99 50.99 55.99 50.99 C 55.99 50.99 56.02 33.97 56.02 33.97 C 56.02 33.97 61.76 34.01 61.76 34.01 C 67.35 34.01 69.92 36.99 69.92 42.41 C 69.92 47.94 67.16 50.96 61.57 50.96 Z M 66.4 37.88 C 65.94 37.35 65.31 36.95 64.52 36.67 C 63.72 36.38 62.97 35.96 61.77 35.96 C 61.77 35.96 57.98 35.99 57.98 35.99 C 57.98 35.99 57.98 48.98 57.98 48.98 C 57.98 48.98 61.52 48.98 61.52 48.98 C 62.71 48.98 63.96 48.64 64.75 48.36 C 65.55 48.07 65.93 47.62 66.4 47.07 C 66.87 46.53 67.19 45.86 67.39 45.08 C 67.58 44.29 67.67 43.4 67.67 42.41 C 67.67 41.45 67.58 40.59 67.39 39.83 C 67.19 39.06 66.87 38.42 66.4 37.88 Z M 39.15 26.52 C 42.38 24.66 47.02 24 53.34 24 C 53.34 24 55.04 24 55.04 24 C 55.03 23.64 55.02 23.01 55.01 22.69 C 54.98 22.13 55.06 21.52 54.96 21.17 C 54.79 20.4 53.88 20.02 53.36 19.61 C 52.82 19.14 51.74 18.63 49.39 18.63 C 47.53 18.63 46.14 18.95 45.25 19.57 C 44.47 20.12 44.03 20.75 43.99 21.96 C 43.99 21.96 43.99 22.96 43.99 22.96 C 43.99 22.96 34.96 22.99 34.96 22.99 C 34.96 22.99 35.1 22.03 35.1 22.03 C 35.4 17.25 38.12 11.01 49.67 11.01 C 51.78 11.01 53.73 11.73 55.34 12.09 C 57.03 12.47 58.56 13.12 59.89 14.02 C 61.25 14.93 62.29 16.22 62.96 17.85 C 63.6 19.42 63.96 20.33 63.96 22.97 C 63.96 22.97 63.99 28.98 63.99 28.98 C 63.99 28.98 37.04 28.98 37.04 28.98 C 37.87 27.85 37.77 27.32 39.15 26.52 Z M 24.98 50.96 C 24.98 50.96 23 51.05 23 51.05 C 23 51.05 23 35.99 23 35.99 C 23 35.99 18.03 36.02 18.03 36.02 C 18.03 36.02 18 34.01 18 34.01 C 18 34.01 30.01 34.01 30.01 34.01 C 30.01 34.01 30.04 35.96 30.04 35.96 C 30.04 35.96 25.01 35.99 25.01 35.99 C 25.01 35.99 24.98 50.96 24.98 50.96 Z M 21.01 24.25 C 21.01 23.25 21.09 22.24 20.94 21.55 C 20.81 20.98 20.86 20.76 20.6 20.44 C 20.36 20.14 20.06 19.92 19.67 19.78 C 19.19 19.61 18.57 19.53 17.82 19.53 C 16.75 19.53 15.67 19.81 14.6 20.36 C 13.59 20.9 12.09 21.82 11.02 23.01 C 11.02 23.01 11.01 28.96 11.01 28.96 C 11.01 28.96 2.01 28.98 2.01 28.98 C 2.01 28.98 2 0.05 2 0.05 C 2 0.05 11.08 0.05 11.08 0.05 C 11.08 0.05 11.02 8.73 11.02 8.73 C 11.02 10.06 11.06 12.23 11.05 13.5 C 11.04 13.78 11.1 14.34 11.1 14.61 C 13.49 12.76 16.45 11.01 19.26 11.01 C 26.73 11.01 29.96 15.39 29.96 23.45 C 29.96 23.45 29.96 29.01 29.96 29.01 C 29.96 29.01 21.01 28.98 21.01 28.98 C 21.01 28.98 21.01 24.25 21.01 24.25 Z M 4.63 34.34 C 5.34 34.11 6.14 33.99 7.01 33.99 C 7.94 33.99 8.78 34.11 9.53 34.34 C 10.29 34.56 10.94 34.88 11.49 35.31 C 12.04 35.74 12.48 36.25 12.79 36.86 C 13.11 37.48 13.28 38.16 13.3 38.93 C 13.3 38.93 11.19 38.93 11.19 38.93 C 10.97 36.95 9.61 35.96 7.11 35.96 C 5.89 35.96 4.95 36.19 4.29 36.64 C 3.63 37.09 3.3 37.7 3.3 38.47 C 3.3 38.82 3.36 39.12 3.48 39.36 C 3.6 39.61 3.81 39.83 4.1 40.01 C 4.39 40.2 4.78 40.37 5.26 40.52 C 5.75 40.67 6.35 40.82 7.07 40.97 C 7.57 41.08 8.07 41.19 8.59 41.31 C 9.11 41.42 9.61 41.57 10.1 41.74 C 10.59 41.91 11.06 42.11 11.49 42.35 C 11.93 42.59 12.31 42.88 12.64 43.22 C 12.97 43.56 13.23 43.96 13.42 44.43 C 13.61 44.89 13.7 45.44 13.7 46.06 C 13.7 46.78 13.55 47.44 13.25 48.04 C 12.94 48.65 12.52 49.17 11.98 49.6 C 11.44 50.04 10.79 50.38 10.05 50.63 C 9.3 50.88 8.49 51 7.61 51 C 6.45 51 5.44 50.86 4.57 50.59 C 3.71 50.31 2.98 49.93 2.4 49.44 C 1.83 48.94 1.39 48.35 1.09 47.67 C 0.79 46.98 0.63 46.23 0.6 45.42 C 0.6 45.42 2.69 45.42 2.69 45.42 C 2.75 46.04 2.92 46.58 3.19 47.04 C 3.46 47.49 3.82 47.87 4.25 48.17 C 4.67 48.47 5.17 48.69 5.72 48.84 C 6.27 48.98 6.87 49.05 7.5 49.05 C 8.12 49.05 8.67 48.98 9.18 48.85 C 9.67 48.72 10.1 48.54 10.46 48.29 C 10.82 48.05 11.09 47.76 11.29 47.41 C 11.48 47.07 11.58 46.68 11.58 46.24 C 11.58 45.79 11.49 45.4 11.31 45.1 C 11.13 44.78 10.84 44.51 10.44 44.27 C 10.04 44.04 9.51 43.83 8.86 43.65 C 8.2 43.46 7.4 43.27 6.45 43.07 C 5.53 42.86 4.74 42.63 4.07 42.35 C 3.4 42.09 2.86 41.78 2.42 41.42 C 2 41.06 1.68 40.64 1.47 40.17 C 1.26 39.7 1.16 39.16 1.16 38.56 C 1.16 37.89 1.3 37.28 1.59 36.72 C 1.87 36.16 2.27 35.69 2.78 35.28 C 3.3 34.88 3.91 34.56 4.63 34.34 Z M 37 34.04 C 37 34.04 38.95 34.01 38.95 34.01 C 38.95 34.01 38.95 43.74 38.95 43.74 C 38.95 44.84 39.05 45.74 39.24 46.43 C 39.43 47.12 39.71 47.66 40.07 48.05 C 40.44 48.44 40.88 48.71 41.41 48.84 C 41.94 48.98 42.55 49.05 43.25 49.05 C 43.93 49.05 44.54 48.98 45.08 48.84 C 45.61 48.69 46.05 48.43 46.41 48.03 C 46.77 47.64 47.76 47.1 47.94 46.41 C 48.13 45.73 48.04 44.83 48.04 43.74 C 48.04 43.74 48 33.97 48 33.97 C 48 33.97 50.01 34.01 50.01 34.01 C 50.01 34.01 50.01 43.78 50.01 43.78 C 50.01 44.91 50.1 46.05 49.91 46.95 C 49.71 47.84 48.87 48.47 48.39 49.09 C 47.9 49.71 47.24 50.18 46.41 50.51 C 45.58 50.84 44.52 51 43.25 51 C 42.22 51 41.35 50.9 40.64 50.69 C 39.93 50.49 39.34 50.2 38.86 49.85 C 38.38 49.5 38 49.09 37.73 48.62 C 37.46 48.15 37.46 48.24 37.32 47.71 C 37.18 47.18 37.06 46.25 37.02 45.68 C 36.99 45.11 37 44.33 37 43.78 C 37 43.78 37 34.04 37 34.04 Z M 86.57 36.32 C 87.27 35.58 88.1 35.01 89.06 34.6 C 90.02 34.2 91.07 33.99 92.2 33.99 C 93.35 33.99 94.4 34.2 95.36 34.6 C 96.31 35.02 97.14 35.59 97.84 36.33 C 98.54 37.07 99.08 37.96 99.47 39.01 C 99.86 40.05 100.06 41.21 100.06 42.48 C 100.06 43.74 99.87 44.9 99.48 45.94 C 99.09 46.98 98.55 47.88 97.86 48.63 C 97.17 49.38 96.34 49.96 95.38 50.37 C 94.41 50.79 93.36 51 92.2 51 C 91.06 51 90 50.79 89.04 50.38 C 88.08 49.97 87.25 49.39 86.55 48.65 C 85.85 47.9 85.31 47.01 84.92 45.96 C 84.54 44.91 84.34 43.75 84.34 42.48 C 84.34 41.2 84.54 40.04 84.93 38.99 C 85.32 37.95 85.87 37.06 86.57 36.32 Z M 87.01 45.28 C 87.29 46.11 87.67 46.81 88.17 47.38 C 88.67 47.95 89.26 48.38 89.94 48.68 C 90.63 48.98 91.38 49.13 92.19 49.13 C 93.01 49.13 93.76 48.98 94.45 48.68 C 95.14 48.38 95.73 47.95 96.23 47.38 C 96.73 46.81 97.12 46.11 97.39 45.28 C 97.68 44.46 97.82 43.52 97.82 42.48 C 97.82 41.44 97.68 40.5 97.39 39.68 C 97.12 38.86 96.73 38.17 96.23 37.6 C 95.73 37.04 95.15 36.61 94.46 36.32 C 93.78 36.02 93.04 35.88 92.24 35.88 C 91.43 35.88 90.67 36.02 89.98 36.32 C 89.29 36.63 88.69 37.06 88.19 37.62 C 87.69 38.19 87.29 38.88 87.01 39.7 C 86.74 40.52 86.6 41.44 86.6 42.48 C 86.6 43.52 86.74 44.46 87.01 45.28 Z" />
</svg>