<?xml version="1.0" encoding="utf-8"?>
<!-- Generator: Avocode 2.4.5 - http://avocode.com -->
<svg height="40" width="164" xmlns:xlink="http://www.w3.org/1999/xlink" xmlns="http://www.w3.org/2000/svg" viewBox="0 0 164 40">
    <path fill="#707070" fill-rule="evenodd" d="M 160.16 16.01 C 160.16 16.01 159.58 16.04 159.58 16.04 C 159.58 16.04 159.48 15.84 159.48 15.84 C 159.16 15.04 158.67 14.41 157.97 13.91 C 157.29 13.41 156.53 13.18 155.64 13.18 C 154.7 13.18 153.91 13.32 153.28 13.6 C 152.65 13.87 152.11 14.26 151.68 14.74 C 150.73 15.78 149.99 17.03 149.99 18.57 C 149.99 20.12 150.73 21.38 151.68 22.41 C 152.63 23.46 153.93 23.97 155.64 23.97 C 156.53 23.97 157.29 23.73 157.97 23.24 C 158.67 22.74 159.16 22.11 159.48 21.31 C 159.48 21.31 159.48 21.05 159.48 21.05 C 159.48 21.05 160.23 21.02 160.23 21.02 C 160.23 21.02 162.85 20.95 162.85 20.95 C 162.85 20.95 163.99 21.02 163.99 21.02 C 163.99 21.02 163.59 21.81 163.59 21.81 C 163.03 23.56 162.01 24.99 160.55 26.05 C 159.02 27.14 157.19 27.94 155.11 27.94 C 152.49 27.94 150.33 26.79 148.68 25.02 C 147.08 23.3 145.99 21.13 145.99 18.57 C 145.99 16.01 147.08 13.85 148.67 12.13 C 150.33 10.36 152.4 8.96 155.02 8.96 C 157.1 8.96 159.02 10.01 160.54 11.09 C 162.01 12.16 163.03 13.59 163.59 15.34 C 163.59 15.34 163.86 15.98 163.86 15.98 C 163.86 15.98 162.85 16.01 162.85 16.01 C 162.85 16.01 160.16 16.01 160.16 16.01 Z M 145.7 34.95 C 145.67 34.59 145.4 34.41 144.87 34.41 C 144.75 34.41 144.64 34.42 144.54 34.44 C 144.44 34.46 144.35 34.5 144.28 34.54 C 144.2 34.58 144.14 34.64 144.1 34.7 C 144.06 34.77 144.04 34.84 144.04 34.93 C 144.04 35 144.05 35.06 144.07 35.11 C 144.09 35.16 144.13 35.21 144.21 35.25 C 144.28 35.29 144.39 35.33 144.53 35.37 C 144.67 35.41 144.87 35.46 145.12 35.52 C 145.36 35.58 145.56 35.64 145.74 35.7 C 145.92 35.76 146.06 35.84 146.18 35.92 C 146.3 36.01 146.39 36.12 146.44 36.24 C 146.5 36.37 146.52 36.52 146.52 36.71 C 146.52 36.89 146.49 37.05 146.41 37.2 C 146.34 37.35 146.23 37.48 146.1 37.59 C 145.96 37.7 145.8 37.79 145.6 37.85 C 145.4 37.92 145.18 37.95 144.94 37.95 C 143.87 37.95 143.31 37.53 143.25 36.69 C 143.25 36.69 143.95 36.69 143.95 36.69 C 143.95 37.16 144.28 37.4 144.93 37.4 C 145.08 37.4 145.21 37.38 145.32 37.35 C 145.43 37.32 145.53 37.28 145.6 37.22 C 145.67 37.17 145.73 37.1 145.77 37.03 C 145.81 36.95 145.83 36.87 145.83 36.78 C 145.83 36.69 145.81 36.61 145.79 36.56 C 145.76 36.5 145.7 36.45 145.61 36.41 C 145.53 36.36 145.41 36.32 145.27 36.28 C 145.12 36.23 144.92 36.18 144.68 36.12 C 144.45 36.06 144.25 36 144.08 35.95 C 143.91 35.89 143.77 35.82 143.66 35.74 C 143.55 35.66 143.47 35.56 143.42 35.44 C 143.37 35.32 143.34 35.17 143.34 34.98 C 143.34 34.83 143.37 34.68 143.44 34.54 C 143.51 34.4 143.61 34.28 143.74 34.18 C 143.87 34.08 144.02 34 144.2 33.95 C 144.39 33.89 144.59 33.86 144.81 33.86 C 145.85 33.86 146.38 34.23 146.39 34.95 C 146.39 34.95 145.7 34.95 145.7 34.95 Z M 143.24 8.04 C 143.24 8.04 141.58 7.95 141.58 7.95 C 141.58 7.95 141.03 7.98 141.03 7.98 C 141.03 7.98 141.03 7.1 141.03 7.1 C 141.03 7.1 141.03 4.92 141.03 4.92 C 141.03 4.92 141.03 3.98 141.03 3.98 C 141.03 3.98 141.61 3.98 141.61 3.98 C 141.61 3.98 143.92 4.07 143.92 4.07 C 143.92 4.07 143.97 4.1 143.97 4.1 C 143.97 4.1 143.97 4.55 143.97 4.55 C 143.97 4.55 143.94 6.75 143.94 6.75 C 143.94 6.75 144.04 8.01 144.04 8.01 C 144.04 8.01 143.24 8.04 143.24 8.04 Z M 141.04 9.97 C 141.04 9.97 141.77 10 141.77 10 C 141.77 10 143.8 9.97 143.8 9.97 C 143.8 9.97 143.97 10.06 143.97 10.06 C 143.97 10.06 143.97 12.69 143.97 12.69 C 143.97 12.69 143.97 24.33 143.97 24.33 C 143.97 24.33 143.97 26.96 143.97 26.96 C 143.97 26.96 143.42 27.02 143.42 27.02 C 143.42 27.02 141.74 26.99 141.74 26.99 C 141.74 26.99 141.01 26.93 141.01 26.93 C 141.01 26.93 141.04 26.2 141.04 26.2 C 141.04 26.2 141.01 12.48 141.01 12.48 C 141.01 12.48 141.04 9.97 141.04 9.97 Z M 137.32 36.66 C 137.38 36.82 137.47 36.96 137.57 37.07 C 137.68 37.18 137.8 37.26 137.94 37.32 C 138.08 37.37 138.23 37.4 138.39 37.4 C 138.51 37.4 138.62 37.38 138.74 37.35 C 138.85 37.32 138.96 37.28 139.05 37.22 C 139.14 37.16 139.21 37.08 139.27 37 C 139.33 36.91 139.36 36.81 139.36 36.69 C 139.36 36.69 140.1 36.69 140.1 36.69 C 140.07 36.89 140.01 37.07 139.91 37.23 C 139.81 37.38 139.68 37.51 139.54 37.62 C 139.39 37.73 139.21 37.81 139.02 37.86 C 138.82 37.92 138.61 37.95 138.39 37.95 C 138.1 37.95 137.84 37.9 137.6 37.81 C 137.37 37.72 137.16 37.58 136.99 37.41 C 136.83 37.23 136.69 37.02 136.6 36.77 C 136.51 36.51 136.46 36.23 136.46 35.9 C 136.46 35.59 136.51 35.3 136.6 35.05 C 136.69 34.8 136.82 34.58 136.98 34.41 C 137.14 34.23 137.34 34.1 137.56 34 C 137.79 33.91 138.04 33.86 138.31 33.86 C 138.6 33.86 138.85 33.9 139.08 34 C 139.31 34.09 139.51 34.23 139.67 34.4 C 139.83 34.58 139.95 34.79 140.04 35.04 C 140.13 35.3 140.17 35.58 140.17 35.9 C 140.17 35.9 140.17 36.07 140.17 36.07 C 140.17 36.07 137.2 36.07 137.2 36.07 C 137.21 36.3 137.25 36.49 137.32 36.66 Z M 139.43 35.52 C 139.37 35.15 139.24 34.87 139.04 34.69 C 138.84 34.5 138.6 34.41 138.31 34.41 C 138.17 34.41 138.04 34.43 137.92 34.48 C 137.8 34.52 137.68 34.59 137.59 34.68 C 137.49 34.78 137.41 34.89 137.34 35.03 C 137.28 35.17 137.23 35.34 137.2 35.52 C 137.2 35.52 139.43 35.52 139.43 35.52 Z M 130.08 27.97 C 128.12 27.97 126.25 27.1 124.92 25.99 C 124.92 25.99 124.95 32.84 124.95 32.84 C 124.95 32.84 124.92 33.97 124.92 33.97 C 124.92 33.97 124.53 33.94 124.53 33.94 C 124.53 33.94 121.94 34 121.94 34 C 121.94 34 120.99 34.03 120.99 34.03 C 120.99 34.03 120.99 33.15 120.99 33.15 C 120.99 33.15 120.99 10.76 120.99 10.76 C 120.99 10.76 120.99 9 120.99 9 C 120.99 9 121.91 9 121.91 9 C 121.91 9 124.37 9 124.37 9 C 124.37 9 124.98 9.03 124.98 9.03 C 124.98 9.03 124.95 10.35 124.95 10.35 C 124.95 10.35 125.02 11.17 125.02 11.17 C 126.36 10.07 128.19 8.99 130.24 8.99 C 132.82 8.99 134.95 10.36 136.56 12.14 C 138.14 13.87 138.98 16.04 138.98 18.57 C 138.98 21.11 138.14 23.28 136.55 25.01 C 134.95 26.79 132.77 27.97 130.08 27.97 Z M 133.61 14.74 C 132.66 13.69 131.45 12.96 129.92 12.96 C 128.37 12.96 127.19 13.68 126.31 14.72 C 125.43 15.74 125.01 16.99 125.01 18.57 C 125.01 20.15 125.43 21.41 126.3 22.43 C 127.19 23.47 128.37 23.97 129.92 23.97 C 131.45 23.97 132.66 23.46 133.61 22.41 C 134.52 21.4 134.96 20.15 134.96 18.57 C 134.96 17 134.52 15.75 133.61 14.74 Z M 119.06 27.87 C 119.06 27.87 116.03 27.96 116.03 27.96 C 116.03 27.96 116.02 27.93 116.02 27.93 C 116.02 27.93 115.98 26.8 115.98 26.8 C 115.98 26.8 115.98 17.31 115.98 17.31 C 115.98 16.01 115.26 15.02 114.54 14.27 C 113.83 13.53 112.93 12.99 111.79 12.99 C 110.6 12.99 109.63 13.56 108.8 14.33 C 108 15.11 107.97 16.13 107.97 17.38 C 107.97 17.38 107.94 26.64 107.94 26.64 C 107.94 26.64 107.88 27.93 107.88 27.93 C 107.88 27.93 106.89 27.93 106.89 27.93 C 106.89 27.93 105.15 27.96 105.15 27.96 C 105.15 27.96 103.98 27.93 103.98 27.93 C 103.98 27.93 104.04 26.92 104.04 26.92 C 104.04 26.92 104.01 11.13 104.01 11.13 C 104.01 11.13 104.07 9.06 104.07 9.06 C 104.07 9.06 104.96 9 104.96 9 C 104.96 9 106.99 9 106.99 9 C 106.99 9 107.91 8.97 107.91 8.97 C 107.91 8.97 108.01 9.01 108.01 9.01 C 108.01 9.01 107.94 11.08 107.94 11.08 C 108.25 10.82 108.23 10.61 108.58 10.39 C 109.56 9.77 110.68 8.99 111.92 8.99 C 113.1 8.99 114.14 9.63 115.01 9.96 C 115.9 10.3 116.69 10.82 117.36 11.51 C 118.84 12.95 120.01 14.32 120.01 16.69 C 120.01 16.69 120.04 26.2 120.04 26.2 C 120.04 26.2 120.01 27.9 120.01 27.9 C 120.01 27.9 119.06 27.87 119.06 27.87 Z M 93.4 27.97 C 90.75 27.97 88.58 26.79 86.9 25.02 C 85.33 23.32 85.01 21.16 85.01 18.57 C 85.01 15.99 85.33 13.83 86.9 12.13 C 88.58 10.36 90.78 8.96 93.44 8.96 C 96.1 8.96 98.29 10.36 99.97 12.13 C 101.54 13.83 101.96 16.02 101.96 18.61 C 101.96 21.19 101.54 23.32 99.97 25.02 C 98.29 26.79 96.07 27.97 93.4 27.97 Z M 97.05 14.73 C 96.16 13.68 94.98 12.99 93.44 12.99 C 91.89 12.99 90.71 13.68 89.83 14.72 C 88.95 15.74 87.97 16.99 87.97 18.57 C 87.97 20.15 88.95 21.41 89.82 22.43 C 90.71 23.47 91.89 23.97 93.44 23.97 C 94.98 23.97 96.17 23.47 97.05 22.43 C 97.92 21.41 99 20.15 99 18.57 C 99 16.99 97.92 15.74 97.05 14.73 Z M 74.62 27.97 C 71.96 27.97 69.76 26.79 68.09 25.02 C 66.51 23.32 65.97 21.16 65.97 18.57 C 65.97 15.99 66.51 13.83 68.08 12.13 C 69.76 10.36 71.93 8.96 74.59 8.96 C 77.25 8.96 79.47 10.36 81.15 12.13 C 82.72 13.83 82.96 15.93 82.96 18.51 C 82.96 21.09 82.72 23.32 81.15 25.02 C 79.47 26.79 77.28 27.97 74.62 27.97 Z M 78.23 14.73 C 77.35 13.68 76.13 12.96 74.59 12.96 C 73.04 12.96 71.89 13.68 71.01 14.72 C 70.13 15.74 69.02 17.06 69.02 18.64 C 69.02 20.21 70.13 21.41 71 22.43 C 71.89 23.47 73.07 23.97 74.62 23.97 C 76.16 23.97 77.35 23.47 78.23 22.43 C 79.1 21.41 80.03 20.18 80.03 18.61 C 80.03 17.03 79.1 15.74 78.23 14.73 Z M 61.02 27.9 C 61.02 27.9 60.97 27.84 60.97 27.84 C 60.97 27.84 60.97 26.67 60.97 26.67 C 60.97 26.67 61 16.95 61 16.95 C 61 15.8 60.43 14.88 59.79 14.15 C 59.18 13.5 58.41 13.18 57.45 13.18 C 56.4 13.18 55.56 13.5 54.87 14.16 C 54.14 14.85 53.79 15.77 53.79 16.99 C 53.79 16.99 53.97 26.67 53.97 26.67 C 53.97 26.67 53.97 27.96 53.97 27.96 C 53.97 27.96 52.99 27.96 52.99 27.96 C 52.99 27.96 50.53 27.99 50.53 27.99 C 50.53 27.99 50.07 27.93 50.07 27.93 C 50.07 27.93 50.07 26.7 50.07 26.7 C 50.07 26.7 50.01 16.92 50.01 16.92 C 50.01 15.76 49.48 14.88 48.83 14.15 C 48.23 13.5 47.46 13.18 46.49 13.18 C 45.45 13.18 44.6 13.5 43.91 14.16 C 43.18 14.85 43.02 15.8 43.02 17.02 C 43.02 17.02 42.96 26.73 42.96 26.73 C 42.96 26.73 42.96 27.93 42.96 27.93 C 42.96 27.93 42.07 27.96 42.07 27.96 C 42.07 27.96 39.6 28.02 39.6 28.02 C 39.6 28.02 39.05 27.98 39.05 27.98 C 39.05 27.98 38.99 26.89 38.99 26.89 C 38.99 26.89 39.02 10.85 39.02 10.85 C 39.02 10.85 38.96 10.12 38.96 10.12 C 38.96 10.12 39.79 10 39.79 10 C 39.79 10 42 10.03 42 10.03 C 42 10.03 42.89 10 42.89 10 C 42.89 10 42.83 10.48 42.83 10.48 C 42.83 10.48 42.83 10.86 42.83 10.86 C 43.95 9.93 45.39 8.99 47.08 8.99 C 48.31 8.99 49.44 9.79 50.49 10.43 C 51.19 10.86 51.79 11.42 52.29 12.08 C 53.09 11.1 54.16 10.35 55.47 9.86 C 56.19 9.59 56.97 8.99 57.86 8.99 C 58.76 8.99 59.66 9.64 60.49 9.99 C 61.31 10.34 62.05 10.85 62.69 11.51 C 64.06 12.95 64.93 14.57 64.93 16.7 C 64.93 16.7 64.99 26.23 64.99 26.23 C 64.99 26.23 65.06 28.02 65.06 28.02 C 65.06 28.02 64.04 27.96 64.04 27.96 C 64.04 27.96 61.02 27.9 61.02 27.9 Z M 33.12 19.32 C 32.46 17.92 31.64 16.56 30.65 15.29 C 27.5 11.24 22.01 10.02 17.5 12.07 C 16.92 12.33 16.36 12.65 15.82 13.02 C 15.24 13.29 14.71 13.66 14.26 14.11 C 15.13 10.68 17.87 7.84 21.61 7 C 23.12 6.65 24.63 6.49 26.11 6.49 C 28.28 6.49 30.4 6.84 32.4 7.5 C 34.6 10.41 35.89 14.02 35.89 17.93 C 35.89 20.16 35.47 22.3 34.69 24.26 C 34.38 22.58 33.86 20.92 33.12 19.32 Z M 21.37 5.99 C 16.37 7.11 12.98 11.47 12.92 16.32 C 12.76 16.83 12.68 17.37 12.68 17.93 C 12.68 20.93 15.14 23.36 18.19 23.36 C 18.79 23.36 19.37 23.27 19.91 23.09 C 19.94 23.08 19.97 23.08 19.99 23.08 C 19.97 23.14 19.95 23.2 19.93 23.25 C 18.41 27.41 14.13 30.14 9.5 29.57 C 7.96 29.39 6.48 29.03 5.08 28.54 C 4.62 28.37 4.15 28.18 3.7 27.98 C 1.68 25.14 0.48 21.67 0.48 17.93 C 0.48 8.27 8.41 0.44 18.19 0.44 C 23.34 0.44 27.97 2.61 31.21 6.08 C 29.56 5.67 27.85 5.45 26.11 5.45 C 24.55 5.45 22.96 5.63 21.37 5.99 Z M 9.37 30.6 C 14.5 31.23 19.23 28.22 20.92 23.61 C 21.05 23.24 21.17 22.86 21.26 22.47 C 21.34 22.4 21.42 22.34 21.49 22.27 C 22.83 21.28 23.7 19.71 23.7 17.93 C 23.7 17.68 23.67 17.43 23.64 17.2 C 25.91 20.2 26.31 24.36 24.3 27.83 C 23.54 29.15 22.63 30.36 21.63 31.44 C 20.15 33.02 18.45 34.33 16.6 35.34 C 12.01 34.94 7.92 32.81 5.01 29.6 C 6.4 30.08 7.85 30.42 9.37 30.6 Z M 25.22 28.34 C 27.78 23.91 26.8 18.43 23.15 15.11 C 22.97 14.95 22.77 14.8 22.58 14.65 C 21.75 13.57 20.53 12.81 19.12 12.57 C 22.93 11.4 27.24 12.61 29.82 15.92 C 30.76 17.13 31.54 18.42 32.16 19.76 C 33.1 21.77 33.66 23.88 33.88 26.02 C 30.98 31.51 25.2 35.28 18.51 35.41 C 19.92 34.49 21.23 33.4 22.4 32.14 C 23.46 31.01 24.41 29.73 25.22 28.34 Z M 129.66 34.41 C 129.81 34.23 129.99 34.1 130.19 34 C 130.39 33.91 130.61 33.86 130.85 33.86 C 131.06 33.86 131.26 33.89 131.44 33.96 C 131.62 34.03 131.79 34.12 131.94 34.25 C 131.94 34.25 131.94 32.47 131.94 32.47 C 131.94 32.47 132.64 32.47 132.64 32.47 C 132.64 32.47 132.64 37.85 132.64 37.85 C 132.64 37.85 131.94 37.85 131.94 37.85 C 131.94 37.85 131.94 37.39 131.94 37.39 C 131.62 37.76 131.24 37.95 130.81 37.95 C 130.55 37.95 130.31 37.9 130.11 37.8 C 129.91 37.7 129.74 37.57 129.6 37.39 C 129.46 37.22 129.35 37.01 129.28 36.76 C 129.21 36.51 129.18 36.24 129.18 35.94 C 129.18 35.61 129.22 35.33 129.31 35.07 C 129.39 34.81 129.51 34.59 129.66 34.41 Z M 130.16 37.03 C 130.33 37.28 130.56 37.4 130.86 37.4 C 131.06 37.4 131.25 37.35 131.42 37.23 C 131.61 37.13 131.78 36.95 131.94 36.73 C 131.94 36.73 131.94 34.88 131.94 34.88 C 131.62 34.56 131.28 34.41 130.89 34.41 C 130.59 34.41 130.35 34.53 130.17 34.79 C 129.99 35.04 129.9 35.43 129.9 35.94 C 129.9 36.42 129.99 36.78 130.16 37.03 Z M 150.39 33.22 C 150.39 33.22 149.7 33.22 149.7 33.22 C 149.7 33.22 149.7 32.47 149.7 32.47 C 149.7 32.47 150.39 32.47 150.39 32.47 C 150.39 32.47 150.39 33.22 150.39 33.22 Z M 150.39 37.85 C 150.39 37.85 149.7 37.85 149.7 37.85 C 149.7 37.85 149.7 33.96 149.7 33.96 C 149.7 33.96 150.39 33.96 150.39 33.96 C 150.39 33.96 150.39 37.85 150.39 37.85 Z M 154.35 34.41 C 154.5 34.23 154.68 34.1 154.88 34 C 155.08 33.91 155.3 33.86 155.54 33.86 C 155.75 33.86 155.95 33.89 156.13 33.96 C 156.31 34.03 156.47 34.12 156.63 34.25 C 156.63 34.25 156.63 33.96 156.63 33.96 C 156.63 33.96 157.33 33.96 157.33 33.96 C 157.33 33.96 157.33 37.55 157.33 37.55 C 157.33 38.81 156.75 39.44 155.61 39.44 C 155.36 39.44 155.14 39.41 154.94 39.35 C 154.74 39.3 154.57 39.22 154.43 39.12 C 154.29 39.02 154.19 38.9 154.11 38.74 C 154.04 38.6 154 38.43 154 38.25 C 154 38.25 154.73 38.25 154.73 38.25 C 154.73 38.68 155.01 38.9 155.59 38.9 C 155.75 38.9 155.9 38.87 156.03 38.83 C 156.16 38.8 156.27 38.72 156.36 38.63 C 156.45 38.52 156.51 38.39 156.56 38.22 C 156.61 38.05 156.63 37.84 156.63 37.58 C 156.63 37.58 156.63 37.39 156.63 37.39 C 156.31 37.76 155.93 37.95 155.5 37.95 C 155.23 37.95 155 37.9 154.8 37.8 C 154.6 37.7 154.43 37.57 154.29 37.39 C 154.15 37.22 154.04 37.01 153.97 36.76 C 153.9 36.51 153.87 36.24 153.87 35.94 C 153.87 35.61 153.91 35.33 154 35.07 C 154.08 34.81 154.2 34.59 154.35 34.41 Z M 154.85 37.03 C 155.02 37.28 155.25 37.4 155.56 37.4 C 155.75 37.4 155.94 37.35 156.12 37.23 C 156.29 37.13 156.46 36.95 156.63 36.73 C 156.63 36.73 156.63 34.88 156.63 34.88 C 156.31 34.56 155.96 34.41 155.58 34.41 C 155.28 34.41 155.04 34.53 154.86 34.79 C 154.68 35.04 154.6 35.43 154.6 35.94 C 154.6 36.42 154.68 36.78 154.85 37.03 Z M 161.33 34.45 C 161.5 34.25 161.68 34.1 161.88 34.01 C 162.08 33.91 162.29 33.86 162.5 33.86 C 163.4 33.86 163.84 34.34 163.84 35.31 C 163.84 35.31 163.84 37.85 163.84 37.85 C 163.84 37.85 163.13 37.85 163.13 37.85 C 163.13 37.85 163.13 35.34 163.13 35.34 C 163.13 35.18 163.12 35.04 163.09 34.93 C 163.06 34.81 163.02 34.72 162.96 34.64 C 162.9 34.57 162.83 34.52 162.73 34.49 C 162.64 34.46 162.53 34.44 162.4 34.44 C 162.04 34.44 161.68 34.65 161.33 35.06 C 161.33 35.06 161.33 37.85 161.33 37.85 C 161.33 37.85 160.63 37.85 160.63 37.85 C 160.63 37.85 160.63 33.96 160.63 33.96 C 160.63 33.96 161.33 33.96 161.33 33.96 C 161.33 33.96 161.33 34.45 161.33 34.45 Z" />
</svg>