<?xml version="1.0" encoding="utf-8"?>
<!-- Generator: Avocode 2.4.5 - http://avocode.com -->
<svg height="43" width="140" xmlns:xlink="http://www.w3.org/1999/xlink" xmlns="http://www.w3.org/2000/svg" viewBox="0 0 140 43">
    <path fill="#707070" fill-rule="evenodd" d="M 138.77 10.78 C 138.42 11.8 137.9 12.72 137.22 13.53 C 136.54 14.34 135.71 15.02 134.74 15.56 C 134.22 15.85 133.65 16.1 133.05 16.3 C 133.31 16.6 133.55 16.95 133.78 17.35 C 134.05 17.85 134.31 18.44 134.55 19.1 C 134.79 19.76 135.05 20.54 135.31 21.43 C 135.31 21.43 137.13 28.01 137.13 28.01 C 137.13 28.01 137.41 29.01 137.41 29.01 C 137.41 29.01 130.14 29.01 130.14 29.01 C 130.14 29.01 130 28.41 130 28.41 C 130 28.41 128.38 21.81 128.38 21.81 C 128.19 20.98 127.98 20.3 127.74 19.77 C 127.53 19.3 127.3 18.93 127.05 18.67 C 126.83 18.44 126.59 18.29 126.32 18.2 C 126.01 18.11 125.64 18.06 125.23 18.06 C 125.23 18.06 125.11 18.06 125.11 18.06 C 125.11 18.06 123.08 28.37 123.08 28.37 C 123.08 28.37 122.95 29.01 122.95 29.01 C 122.95 29.01 116.35 29.01 116.35 29.01 C 116.35 29.01 116.54 28.06 116.54 28.06 C 116.54 28.06 121.84 1.6 121.84 1.6 C 121.84 1.6 121.97 0.95 121.97 0.95 C 121.97 0.95 130.2 0.95 130.2 0.95 C 131.5 0.95 132.7 1.06 133.77 1.28 C 134.89 1.51 135.86 1.89 136.67 2.39 C 137.51 2.92 138.16 3.62 138.62 4.47 C 139.07 5.31 139.3 6.34 139.3 7.52 C 139.3 8.67 139.12 9.77 138.77 10.78 Z M 131.83 7.22 C 131.48 6.98 130.72 6.7 129.15 6.7 C 129.15 6.7 127.39 6.7 127.39 6.7 C 127.39 6.7 126.22 12.58 126.22 12.58 C 126.22 12.58 127.01 12.58 127.01 12.58 C 127.89 12.58 128.69 12.48 129.4 12.29 C 130.07 12.11 130.64 11.85 131.1 11.5 C 131.54 11.17 131.87 10.77 132.11 10.29 C 132.34 9.81 132.46 9.23 132.46 8.6 C 132.46 7.73 132.1 7.39 131.83 7.22 Z M 109.53 16.8 C 109.53 16.8 110.32 12.69 110.32 12.69 C 110.32 12.69 110.5 11.75 110.5 11.75 C 110.5 11.75 117.4 11.75 117.4 11.75 C 117.4 11.75 117.22 12.69 117.22 12.69 C 117.22 12.69 116.43 16.8 116.43 16.8 C 116.43 16.8 116.31 17.45 116.31 17.45 C 116.31 17.45 109.41 17.45 109.41 17.45 C 109.41 17.45 109.53 16.8 109.53 16.8 Z M 119.04 6.12 C 119.04 6.12 118.9 6.76 118.9 6.76 C 118.9 6.76 108.07 6.76 108.07 6.76 C 108.07 6.76 107.06 11.75 107.06 11.75 C 107.06 11.75 105.95 17.45 105.95 17.45 C 105.95 17.45 104.79 23.21 104.79 23.21 C 104.79 23.21 115.63 23.21 115.63 23.21 C 115.63 23.21 115.44 24.16 115.44 24.16 C 115.44 24.16 114.61 28.37 114.61 28.37 C 114.61 28.37 114.48 29.02 114.48 29.02 C 114.48 29.02 96.98 29.02 96.98 29.02 C 96.98 29.02 97.17 28.06 97.17 28.06 C 97.17 28.06 101.44 6.69 101.44 6.69 C 101.44 6.69 91.98 6.69 91.98 6.69 C 91.98 6.69 87.68 28.37 87.68 28.37 C 87.68 28.37 87.55 29.01 87.55 29.01 C 87.55 29.01 80.84 29.01 80.84 29.01 C 80.84 29.01 81.03 28.06 81.03 28.06 C 81.03 28.06 85.28 6.63 85.28 6.63 C 85.28 6.63 78.06 6.63 78.06 6.63 C 78.06 6.63 78.22 5.74 78.22 5.74 C 78.22 5.74 79.09 1.59 79.09 1.59 C 79.09 1.59 79.22 0.95 79.22 0.95 C 79.22 0.95 102.59 0.95 102.59 0.95 C 102.59 0.95 102.59 0.95 102.59 0.95 C 102.59 0.95 120.1 0.95 120.1 0.95 C 120.1 0.95 119.9 1.91 119.9 1.91 C 119.9 1.91 119.04 6.12 119.04 6.12 Z M 72.87 23.33 C 72.87 23.33 71.71 29.01 71.71 29.01 C 71.71 29.01 65.01 29.01 65.01 29.01 C 65.01 29.01 66.2 23.33 66.2 23.33 C 66.2 23.33 69.56 6.64 69.56 6.64 C 69.56 6.64 70.68 0.95 70.68 0.95 C 70.68 0.95 77.44 0.95 77.44 0.95 C 77.44 0.95 76.21 6.64 76.21 6.64 C 76.21 6.64 72.87 23.33 72.87 23.33 Z M 63.55 16.85 C 62.44 17.97 61.03 18.86 59.35 19.52 C 57.68 20.18 55.7 20.51 53.47 20.51 C 53.47 20.51 51.34 20.51 51.34 20.51 C 51.34 20.51 49.78 28.37 49.78 28.37 C 49.78 28.37 49.66 29.01 49.66 29.01 C 49.66 29.01 43.06 29.01 43.06 29.01 C 43.06 29.01 43.25 28.06 43.25 28.06 C 43.25 28.06 48.55 1.6 48.55 1.6 C 48.55 1.6 48.68 0.95 48.68 0.95 C 48.68 0.95 56.83 0.95 56.83 0.95 C 58.61 0.95 60.15 1.15 61.4 1.55 C 62.68 1.95 63.74 2.51 64.54 3.2 C 65.36 3.91 65.97 4.74 66.34 5.67 C 66.7 6.57 66.88 7.52 66.88 8.48 C 66.88 10.02 66.61 11.53 66.06 12.98 C 65.51 14.43 64.67 15.74 63.55 16.85 Z M 59.86 8.23 C 59.78 7.96 59.62 7.72 59.38 7.5 C 59.13 7.27 58.76 7.08 58.28 6.92 C 57.77 6.76 57.08 6.68 56.22 6.68 C 56.22 6.68 54.1 6.68 54.1 6.68 C 54.1 6.68 52.46 14.78 52.46 14.78 C 52.46 14.78 54.16 14.78 54.16 14.78 C 55.07 14.78 55.89 14.64 56.61 14.35 C 57.33 14.06 57.94 13.66 58.44 13.17 C 58.93 12.67 59.32 12.08 59.6 11.41 C 59.88 10.74 60.02 10.01 60.02 9.24 C 60.02 8.89 59.97 8.55 59.86 8.23 Z M 42.75 19.04 C 42.4 20.79 41.88 22.34 41.2 23.64 C 40.51 24.96 39.63 26.07 38.6 26.93 C 37.57 27.8 36.35 28.45 34.98 28.86 C 33.65 29.27 32.16 29.48 30.53 29.48 C 29.03 29.48 27.7 29.3 26.59 28.96 C 25.43 28.6 24.47 28.07 23.72 27.39 C 22.95 26.7 22.4 25.84 22.07 24.87 C 21.75 23.94 21.59 22.9 21.59 21.76 C 21.59 20.81 21.71 19.78 21.95 18.71 C 21.95 18.71 25.37 1.6 25.37 1.6 C 25.37 1.6 25.49 0.95 25.49 0.95 C 25.49 0.95 32.09 0.95 32.09 0.95 C 32.09 0.95 31.89 1.91 31.89 1.91 C 31.89 1.91 28.46 19.16 28.46 19.16 C 28.31 19.94 28.23 20.63 28.23 21.21 C 28.23 21.68 28.29 22.09 28.39 22.43 C 28.49 22.72 28.63 22.96 28.83 23.16 C 29.01 23.35 29.28 23.49 29.64 23.6 C 30.05 23.72 30.56 23.78 31.16 23.78 C 31.88 23.78 32.53 23.69 33.09 23.51 C 33.61 23.33 34.06 23.06 34.46 22.68 C 34.86 22.28 35.21 21.76 35.49 21.14 C 35.78 20.48 36.03 19.65 36.22 18.66 C 36.22 18.66 39.66 1.6 39.66 1.6 C 39.66 1.6 39.78 0.95 39.78 0.95 C 39.78 0.95 46.4 0.95 46.4 0.95 C 46.4 0.95 46.21 1.91 46.21 1.91 C 46.21 1.91 42.75 19.04 42.75 19.04 Z M 19.04 20.86 C 18.8 22.07 18.36 23.21 17.76 24.24 C 17.15 25.28 16.38 26.19 15.46 26.96 C 14.54 27.72 13.46 28.33 12.24 28.76 C 11.02 29.2 9.63 29.42 8.12 29.42 C 7.4 29.42 6.68 29.35 5.99 29.22 C 5.31 29.1 4.64 28.91 4.02 28.67 C 3.38 28.42 2.79 28.12 2.25 27.78 C 1.7 27.42 1.21 27.01 0.78 26.56 C 0.78 26.56 0.32 26.06 0.32 26.06 C 0.32 26.06 0.74 25.52 0.74 25.52 C 0.74 25.52 3.51 22 3.51 22 C 3.51 22 4.08 21.28 4.08 21.28 C 4.08 21.28 4.71 21.94 4.71 21.94 C 4.93 22.17 5.17 22.39 5.44 22.6 C 5.7 22.81 5.98 22.99 6.28 23.14 C 6.59 23.3 6.93 23.43 7.28 23.52 C 7.64 23.61 8.04 23.66 8.48 23.66 C 8.84 23.66 9.23 23.58 9.66 23.44 C 10.07 23.31 10.48 23.07 10.87 22.75 C 11.26 22.44 11.61 21.99 11.92 21.44 C 12.24 20.87 12.49 20.14 12.67 19.27 C 12.67 19.27 15.21 6.66 15.21 6.66 C 15.21 6.66 5.65 6.66 5.65 6.66 C 5.65 6.66 5.84 5.7 5.84 5.7 C 5.84 5.7 6.67 1.59 6.67 1.59 C 6.67 1.59 6.8 0.95 6.8 0.95 C 6.8 0.95 22.99 0.95 22.99 0.95 C 22.99 0.95 22.8 1.91 22.8 1.91 C 22.8 1.91 19.04 20.86 19.04 20.86 Z M 24.59 36.84 C 25.36 36.84 25.94 37 26.34 37.33 C 26.73 37.66 26.93 38.17 26.93 38.86 C 26.93 38.98 26.92 39.13 26.91 39.31 C 26.89 39.49 26.86 39.69 26.82 39.9 C 26.77 40.11 26.71 40.32 26.63 40.55 C 26.55 40.78 26.46 41 26.33 41.22 C 26.2 41.44 26.05 41.64 25.87 41.84 C 25.68 42.03 25.47 42.21 25.22 42.35 C 24.98 42.5 24.69 42.62 24.37 42.7 C 24.05 42.79 23.69 42.83 23.28 42.83 C 23.28 42.83 21.87 42.83 21.87 42.83 C 21.87 42.83 23.07 36.84 23.07 36.84 C 23.07 36.84 24.59 36.84 24.59 36.84 Z M 23.39 42.13 C 23.69 42.13 23.96 42.09 24.19 42.02 C 24.43 41.95 24.64 41.85 24.82 41.73 C 25 41.61 25.16 41.48 25.29 41.31 C 25.43 41.15 25.54 40.99 25.63 40.81 C 25.73 40.63 25.8 40.45 25.86 40.27 C 25.92 40.08 25.97 39.91 26 39.74 C 26.03 39.57 26.05 39.41 26.06 39.27 C 26.07 39.12 26.08 39 26.08 38.9 C 26.08 38.65 26.04 38.44 25.98 38.27 C 25.91 38.09 25.81 37.95 25.68 37.84 C 25.55 37.73 25.38 37.65 25.18 37.6 C 24.98 37.55 24.75 37.52 24.49 37.52 C 24.49 37.52 23.75 37.52 23.75 37.52 C 23.75 37.52 22.83 42.13 22.83 42.13 C 22.83 42.13 23.39 42.13 23.39 42.13 Z M 36.13 36.84 C 36.13 36.84 35.99 37.52 35.99 37.52 C 35.99 37.52 33.38 37.52 33.38 37.52 C 33.38 37.52 33 39.38 33 39.38 C 33 39.38 35.5 39.38 35.5 39.38 C 35.5 39.38 35.37 40.07 35.37 40.07 C 35.37 40.07 32.87 40.07 32.87 40.07 C 32.87 40.07 32.45 42.14 32.45 42.14 C 32.45 42.14 35.06 42.14 35.06 42.14 C 35.06 42.14 34.92 42.83 34.92 42.83 C 34.92 42.83 31.49 42.83 31.49 42.83 C 31.49 42.83 32.7 36.84 32.7 36.84 C 32.7 36.84 36.13 36.84 36.13 36.84 Z M 41.09 40.88 C 41.09 40.88 41.2 42.06 41.2 42.06 C 41.2 42.06 41.83 40.88 41.83 40.88 C 41.83 40.88 43.94 36.84 43.94 36.84 C 43.94 36.84 44.86 36.84 44.86 36.84 C 44.86 36.84 41.6 42.83 41.6 42.83 C 41.6 42.83 40.5 42.83 40.5 42.83 C 40.5 42.83 39.7 36.84 39.7 36.84 C 39.7 36.84 40.59 36.84 40.59 36.84 C 40.59 36.84 41.09 40.88 41.09 40.88 Z M 51.95 36.84 C 51.95 36.84 51.81 37.52 51.81 37.52 C 51.81 37.52 49.2 37.52 49.2 37.52 C 49.2 37.52 48.82 39.38 48.82 39.38 C 48.82 39.38 51.33 39.38 51.33 39.38 C 51.33 39.38 51.2 40.07 51.2 40.07 C 51.2 40.07 48.69 40.07 48.69 40.07 C 48.69 40.07 48.28 42.14 48.28 42.14 C 48.28 42.14 50.88 42.14 50.88 42.14 C 50.88 42.14 50.74 42.83 50.74 42.83 C 50.74 42.83 47.31 42.83 47.31 42.83 C 47.31 42.83 48.52 36.84 48.52 36.84 C 48.52 36.84 51.95 36.84 51.95 36.84 Z M 57.57 36.84 C 57.57 36.84 56.5 42.14 56.5 42.14 C 56.5 42.14 59.14 42.14 59.14 42.14 C 59.14 42.14 59 42.83 59 42.83 C 59 42.83 55.53 42.83 55.53 42.83 C 55.53 42.83 56.74 36.84 56.74 36.84 C 56.74 36.84 57.57 36.84 57.57 36.84 Z M 63.38 39 C 63.49 38.69 63.63 38.4 63.8 38.13 C 63.97 37.86 64.16 37.62 64.39 37.42 C 64.62 37.21 64.87 37.05 65.16 36.93 C 65.45 36.81 65.76 36.75 66.1 36.75 C 66.72 36.75 67.17 36.93 67.48 37.28 C 67.79 37.63 67.94 38.13 67.94 38.77 C 67.94 39.08 67.91 39.4 67.86 39.73 C 67.8 40.05 67.72 40.37 67.61 40.68 C 67.5 40.98 67.36 41.27 67.19 41.55 C 67.02 41.82 66.82 42.05 66.6 42.26 C 66.37 42.46 66.11 42.62 65.83 42.74 C 65.54 42.86 65.23 42.92 64.89 42.92 C 64.27 42.92 63.81 42.74 63.5 42.39 C 63.2 42.04 63.04 41.54 63.04 40.9 C 63.04 40.59 63.07 40.27 63.13 39.95 C 63.18 39.62 63.26 39.3 63.38 39 Z M 63.95 41.4 C 63.99 41.57 64.05 41.71 64.14 41.83 C 64.23 41.95 64.34 42.04 64.48 42.11 C 64.62 42.17 64.78 42.21 64.98 42.21 C 65.23 42.21 65.45 42.15 65.66 42.04 C 65.86 41.93 66.04 41.78 66.2 41.59 C 66.36 41.41 66.49 41.2 66.61 40.96 C 66.72 40.72 66.81 40.48 66.89 40.23 C 66.96 39.98 67.02 39.73 67.05 39.49 C 67.09 39.25 67.1 39.03 67.1 38.83 C 67.1 38.62 67.08 38.44 67.04 38.27 C 67 38.1 66.93 37.96 66.85 37.84 C 66.76 37.72 66.64 37.63 66.51 37.56 C 66.37 37.5 66.21 37.47 66.01 37.47 C 65.76 37.47 65.54 37.52 65.33 37.64 C 65.13 37.75 64.95 37.9 64.79 38.08 C 64.63 38.27 64.5 38.48 64.38 38.72 C 64.27 38.95 64.18 39.2 64.1 39.44 C 64.03 39.69 63.97 39.94 63.94 40.18 C 63.9 40.43 63.88 40.65 63.88 40.84 C 63.88 41.05 63.91 41.24 63.95 41.4 Z M 73.96 36.84 C 74.23 36.84 74.49 36.86 74.73 36.92 C 74.97 36.98 75.17 37.06 75.35 37.19 C 75.53 37.3 75.67 37.46 75.77 37.65 C 75.87 37.83 75.92 38.05 75.92 38.31 C 75.92 38.5 75.9 38.69 75.85 38.89 C 75.79 39.08 75.72 39.26 75.61 39.43 C 75.51 39.61 75.38 39.77 75.22 39.92 C 75.06 40.08 74.89 40.21 74.68 40.32 C 74.48 40.43 74.25 40.52 73.99 40.59 C 73.73 40.65 73.45 40.68 73.15 40.68 C 73.15 40.68 72.36 40.68 72.36 40.68 C 72.36 40.68 71.92 42.83 71.92 42.83 C 71.92 42.83 71.1 42.83 71.1 42.83 C 71.1 42.83 72.3 36.84 72.3 36.84 C 72.3 36.84 73.96 36.84 73.96 36.84 Z M 73.22 39.99 C 73.46 39.99 73.68 39.97 73.86 39.92 C 74.05 39.87 74.21 39.8 74.35 39.72 C 74.49 39.63 74.6 39.53 74.69 39.43 C 74.78 39.32 74.85 39.2 74.91 39.08 C 74.96 38.97 75 38.85 75.03 38.73 C 75.05 38.6 75.06 38.49 75.06 38.39 C 75.06 38.11 74.96 37.9 74.76 37.75 C 74.56 37.6 74.26 37.52 73.86 37.52 C 73.86 37.52 72.99 37.52 72.99 37.52 C 72.99 37.52 72.49 39.99 72.49 39.99 C 72.49 39.99 73.22 39.99 73.22 39.99 Z M 82.01 36.84 C 82.01 36.84 82.38 39.09 82.38 39.09 C 82.38 39.09 82.48 39.86 82.48 39.86 C 82.48 39.86 82.9 39.09 82.9 39.09 C 82.9 39.09 84.2 36.84 84.2 36.84 C 84.2 36.84 85.24 36.84 85.24 36.84 C 85.24 36.84 84.32 42.83 84.32 42.83 C 84.32 42.83 83.52 42.83 83.52 42.83 C 83.52 42.83 84.15 39.09 84.15 39.09 C 84.15 39.09 84.39 37.66 84.39 37.66 C 84.39 37.66 83.93 38.49 83.93 38.49 C 83.93 38.49 82.57 40.88 82.57 40.88 C 82.57 40.88 82.01 40.88 82.01 40.88 C 82.01 40.88 81.61 38.58 81.61 38.58 C 81.61 38.58 81.52 37.66 81.52 37.66 C 81.52 37.66 81.2 39.16 81.2 39.16 C 81.2 39.16 80.36 42.83 80.36 42.83 C 80.36 42.83 79.58 42.83 79.58 42.83 C 79.58 42.83 81.08 36.84 81.08 36.84 C 81.08 36.84 82.01 36.84 82.01 36.84 Z M 93.9 36.84 C 93.9 36.84 93.76 37.52 93.76 37.52 C 93.76 37.52 91.15 37.52 91.15 37.52 C 91.15 37.52 90.77 39.38 90.77 39.38 C 90.77 39.38 93.28 39.38 93.28 39.38 C 93.28 39.38 93.14 40.07 93.14 40.07 C 93.14 40.07 90.64 40.07 90.64 40.07 C 90.64 40.07 90.22 42.14 90.22 42.14 C 90.22 42.14 92.83 42.14 92.83 42.14 C 92.83 42.14 92.69 42.83 92.69 42.83 C 92.69 42.83 89.26 42.83 89.26 42.83 C 89.26 42.83 90.47 36.84 90.47 36.84 C 90.47 36.84 93.9 36.84 93.9 36.84 Z M 97.97 36.84 C 97.97 36.84 98.92 40.38 98.92 40.38 C 98.92 40.38 99.25 41.75 99.25 41.75 C 99.25 41.75 99.89 38.54 99.89 38.54 C 99.89 38.54 100.24 36.84 100.24 36.84 C 100.24 36.84 101.01 36.84 101.01 36.84 C 101.01 36.84 99.8 42.83 99.8 42.83 C 99.8 42.83 98.77 42.83 98.77 42.83 C 98.77 42.83 97.77 39.09 97.77 39.09 C 97.77 39.09 97.49 37.89 97.49 37.89 C 97.49 37.89 96.89 40.91 96.89 40.91 C 96.89 40.91 96.5 42.83 96.5 42.83 C 96.5 42.83 95.74 42.83 95.74 42.83 C 95.74 42.83 96.95 36.84 96.95 36.84 C 96.95 36.84 97.97 36.84 97.97 36.84 Z M 104.86 36.84 C 104.86 36.84 109.26 36.84 109.26 36.84 C 109.26 36.84 109.12 37.53 109.12 37.53 C 109.12 37.53 107.33 37.53 107.33 37.53 C 107.33 37.53 106.27 42.83 106.27 42.83 C 106.27 42.83 105.44 42.83 105.44 42.83 C 105.44 42.83 106.5 37.53 106.5 37.53 C 106.5 37.53 104.72 37.53 104.72 37.53 C 104.72 37.53 104.86 36.84 104.86 36.84 Z" />
</svg>