<?xml version="1.0" encoding="utf-8"?>
<!-- Generator: Avocode 2.4.5 - http://avocode.com -->
<svg height="42" width="152" xmlns:xlink="http://www.w3.org/1999/xlink" xmlns="http://www.w3.org/2000/svg" viewBox="0 0 152 42">
    <path fill="#707070" fill-rule="evenodd" d="M 147.3 27.35 C 144.97 27.35 143.07 25.43 143.07 23.08 C 143.07 20.72 144.97 18.8 147.3 18.8 C 149.64 18.8 151.53 20.72 151.53 23.08 C 151.53 25.43 149.64 27.35 147.3 27.35 Z M 147.3 19.35 C 145.27 19.35 143.61 21.02 143.61 23.08 C 143.61 25.13 145.27 26.8 147.3 26.8 C 149.34 26.8 150.99 25.13 150.99 23.08 C 150.99 21.02 149.34 19.35 147.3 19.35 Z M 148.31 23.24 C 148.63 23.37 148.81 23.68 148.93 24.12 C 149.07 24.65 149.22 25.26 149.31 25.44 C 149.31 25.44 148.23 25.44 148.23 25.44 C 148.16 25.3 148.05 24.93 147.91 24.35 C 147.78 23.76 147.59 23.6 147.16 23.59 C 147.16 23.59 146.84 23.59 146.84 23.59 C 146.84 23.59 146.84 25.44 146.84 25.44 C 146.84 25.44 145.8 25.44 145.8 25.44 C 145.8 25.44 145.8 20.81 145.8 20.81 C 146.14 20.75 146.64 20.71 147.2 20.71 C 147.89 20.71 148.37 20.81 148.7 21.08 C 148.98 21.3 149.13 21.63 149.13 22.06 C 149.13 22.66 148.71 23.07 148.31 23.22 C 148.31 23.22 148.31 23.24 148.31 23.24 Z M 147.32 21.5 C 147.06 21.5 146.92 21.52 146.84 21.53 C 146.84 21.53 146.84 22.83 146.84 22.83 C 146.84 22.83 147.25 22.83 147.25 22.83 C 147.78 22.83 148.09 22.56 148.09 22.15 C 148.09 21.72 147.8 21.5 147.32 21.5 Z M 134.58 26.53 C 134.58 26.53 131.5 41.56 131.5 41.56 C 131.5 41.56 128.29 41.56 128.29 41.56 C 128.29 41.56 131.38 26.53 131.38 26.53 C 131.38 26.53 125.87 26.53 125.87 26.53 C 125.87 26.53 126.4 23.81 126.4 23.81 C 126.4 23.81 140.65 23.81 140.65 23.81 C 140.65 23.81 140.1 26.53 140.1 26.53 C 140.1 26.53 134.58 26.53 134.58 26.53 Z M 115.04 26.53 C 115.04 26.53 114.09 31.12 114.09 31.12 C 114.09 31.12 120.79 31.12 120.79 31.12 C 120.79 31.12 120.24 33.84 120.24 33.84 C 120.24 33.84 113.54 33.84 113.54 33.84 C 113.54 33.84 112.5 38.84 112.5 38.84 C 112.5 38.84 120.79 38.84 120.79 38.84 C 120.79 38.84 120.24 41.56 120.24 41.56 C 120.24 41.56 108.75 41.56 108.75 41.56 C 108.75 41.56 112.39 23.81 112.39 23.81 C 112.39 23.81 123.4 23.81 123.4 23.81 C 123.4 23.81 122.84 26.53 122.84 26.53 C 122.84 26.53 115.04 26.53 115.04 26.53 Z M 106.81 41.56 C 106.81 41.56 103.12 41.56 103.12 41.56 C 103.12 41.56 98.04 33.36 98.04 33.36 C 98.04 33.36 97.99 33.36 97.99 33.36 C 97.99 33.36 96.31 41.56 96.31 41.56 C 96.31 41.56 93.11 41.56 93.11 41.56 C 93.11 41.56 96.74 23.81 96.74 23.81 C 96.74 23.81 99.95 23.81 99.95 23.81 C 99.95 23.81 98.33 31.71 98.33 31.71 C 98.33 31.71 98.38 31.71 98.38 31.71 C 98.38 31.71 105.66 23.81 105.66 23.81 C 105.66 23.81 109.62 23.81 109.62 23.81 C 109.62 23.81 101.23 32.74 101.23 32.74 C 101.23 32.74 106.81 41.56 106.81 41.56 Z M 90.54 26.38 C 89.96 26.28 89.35 26.23 88.72 26.23 C 87.96 26.23 87.26 26.34 86.6 26.56 C 85.95 26.78 85.36 27.09 84.84 27.48 C 84.32 27.86 83.86 28.33 83.47 28.85 C 83.08 29.39 82.76 29.97 82.49 30.59 C 82.23 31.21 82.03 31.86 81.9 32.55 C 81.77 33.24 81.71 33.93 81.71 34.62 C 81.71 35.52 81.83 36.26 82.07 36.84 C 82.31 37.42 82.64 37.89 83.06 38.23 C 83.48 38.57 83.97 38.81 84.53 38.94 C 85.1 39.08 85.7 39.15 86.34 39.15 C 87.04 39.16 87.76 39.09 88.5 38.96 C 89.24 38.82 89.98 38.62 90.73 38.37 C 90.73 38.37 90.15 41.23 90.15 41.23 C 89.44 41.48 88.68 41.65 87.86 41.75 C 87.05 41.85 86.32 41.9 85.66 41.9 C 84.6 41.9 83.63 41.76 82.75 41.49 C 81.87 41.22 81.12 40.8 80.49 40.24 C 79.85 39.67 79.36 38.95 79.01 38.06 C 78.66 37.18 78.49 36.12 78.49 34.9 C 78.49 34.04 78.58 33.15 78.74 32.25 C 78.91 31.35 79.18 30.48 79.53 29.63 C 79.89 28.79 80.33 27.99 80.87 27.24 C 81.41 26.5 82.05 25.85 82.79 25.29 C 83.54 24.73 84.4 24.29 85.38 23.97 C 86.36 23.65 87.42 23.48 88.56 23.48 C 89.18 23.48 89.89 23.54 90.69 23.65 C 91.49 23.77 92.24 23.94 92.93 24.17 C 92.93 24.17 92.39 26.83 92.39 26.83 C 91.74 26.63 91.12 26.48 90.54 26.38 Z M 75.32 35.09 C 74.99 35.96 74.57 36.8 74.06 37.62 C 73.54 38.44 72.91 39.16 72.17 39.79 C 71.43 40.42 70.57 40.93 69.59 41.32 C 68.61 41.7 67.5 41.9 66.25 41.9 C 65.22 41.9 64.29 41.75 63.45 41.46 C 62.62 41.18 61.9 40.75 61.31 40.18 C 60.71 39.61 60.26 38.9 59.93 38.05 C 59.61 37.21 59.45 36.23 59.45 35.13 C 59.45 34.44 59.52 33.68 59.66 32.83 C 59.8 31.99 60.04 31.14 60.36 30.28 C 60.69 29.42 61.11 28.58 61.62 27.76 C 62.14 26.94 62.77 26.22 63.51 25.58 C 64.25 24.95 65.11 24.44 66.09 24.06 C 67.07 23.67 68.18 23.48 69.44 23.48 C 70.46 23.48 71.39 23.63 72.23 23.91 C 73.06 24.2 73.78 24.63 74.37 25.2 C 74.97 25.77 75.42 26.48 75.75 27.32 C 76.07 28.17 76.24 29.14 76.24 30.25 C 76.24 30.94 76.16 31.7 76.02 32.54 C 75.87 33.38 75.64 34.23 75.32 35.09 Z M 72 27.26 C 71.32 26.57 70.39 26.23 69.21 26.23 C 68.51 26.23 67.85 26.35 67.26 26.6 C 66.66 26.85 66.12 27.19 65.63 27.61 C 65.15 28.04 64.72 28.55 64.35 29.12 C 63.98 29.69 63.66 30.31 63.41 30.97 C 63.17 31.62 62.98 32.3 62.85 33 C 62.72 33.7 62.66 34.39 62.66 35.06 C 62.66 35.74 62.75 36.33 62.92 36.83 C 63.1 37.34 63.35 37.77 63.68 38.12 C 64.01 38.46 64.41 38.72 64.88 38.89 C 65.35 39.06 65.88 39.15 66.47 39.15 C 67.18 39.15 67.83 39.02 68.42 38.78 C 69.02 38.53 69.56 38.19 70.05 37.76 C 70.53 37.33 70.96 36.83 71.33 36.26 C 71.7 35.68 72.02 35.07 72.26 34.41 C 72.51 33.76 72.7 33.08 72.83 32.38 C 72.96 31.68 73.02 30.99 73.02 30.31 C 73.02 28.97 72.68 27.95 72 27.26 Z M 57.32 32.02 C 56.89 32.53 56.35 32.97 55.68 33.34 C 55.02 33.71 54.23 34 53.3 34.21 C 53.3 34.21 53.3 34.27 53.3 34.27 C 53.3 34.27 57.2 41.56 57.2 41.56 C 57.2 41.56 53.66 41.56 53.66 41.56 C 53.66 41.56 50.14 34.69 50.14 34.69 C 50.14 34.69 48.01 34.69 48.01 34.69 C 48.01 34.69 46.61 41.56 46.61 41.56 C 46.61 41.56 43.4 41.56 43.4 41.56 C 43.4 41.56 47.04 23.81 47.04 23.81 C 47.04 23.81 51.79 23.81 51.79 23.81 C 52.55 23.81 53.21 23.84 53.75 23.89 C 54.3 23.95 54.78 24.04 55.19 24.16 C 56.35 24.49 57.19 25.03 57.73 25.75 C 58.27 26.48 58.54 27.33 58.54 28.31 C 58.54 29.03 58.44 29.7 58.24 30.33 C 58.05 30.95 57.74 31.52 57.32 32.02 Z M 55.03 27.45 C 54.84 27.13 54.53 26.9 54.09 26.75 C 53.88 26.68 53.61 26.62 53.28 26.59 C 52.94 26.55 52.53 26.53 52.03 26.53 C 52.03 26.53 49.69 26.53 49.69 26.53 C 49.69 26.53 48.58 31.97 48.58 31.97 C 48.58 31.97 49.81 31.97 49.81 31.97 C 50.4 31.97 50.92 31.95 51.39 31.91 C 51.85 31.87 52.26 31.8 52.63 31.69 C 53.46 31.46 54.12 31.09 54.6 30.57 C 55.08 30.06 55.32 29.39 55.32 28.56 C 55.32 28.14 55.23 27.77 55.03 27.45 Z M 12.68 41.87 C 12.68 41.87 0.68 41.87 0.68 41.87 C 0.68 41.87 2.32 41.17 3.61 40.74 C 4.01 40.6 4.25 40.46 4.42 40.31 C 3.66 39.49 3.18 38.39 3.18 37.17 C 3.18 34.63 5.22 32.56 7.74 32.56 C 8.65 32.56 9.48 32.84 10.19 33.3 C 9.99 33.88 9.85 34.48 9.85 35.08 C 9.85 36.42 10.42 37.62 11.34 38.59 C 10.87 37.72 10.58 36.75 10.58 35.69 C 10.58 32.33 13.28 29.61 16.61 29.61 C 19.93 29.61 22.63 32.33 22.63 35.69 C 22.63 36.69 22.38 37.61 21.96 38.44 C 22.78 37.5 23.28 36.34 23.28 35.08 C 23.28 34.15 22.98 33.24 22.49 32.39 C 22.87 32.29 23.26 32.21 23.67 32.21 C 25.94 32.21 27.8 33.94 28.09 36.15 C 26.91 36.64 25.97 37.65 25.49 38.93 C 25.49 38.93 25.67 38.96 25.67 38.96 C 26.46 37.65 27.87 36.77 29.49 36.77 C 31.59 36.77 33.34 38.23 33.82 40.2 C 33.98 40.38 34.25 40.59 34.77 40.76 C 36.07 41.2 37.7 41.9 37.7 41.9 C 37.7 41.9 12.65 41.9 12.65 41.9 C 12.65 41.9 12.68 41.87 12.68 41.87 Z M 16.74 22.76 C 17 22.98 17.7 23.39 17.96 23.41 C 18.24 23.39 18.91 22.98 19.18 22.76 C 19.18 22.76 20.11 25.49 20.11 25.49 C 20.11 25.49 19.05 24.34 19.05 24.34 C 19.05 24.34 19.71 28.55 19.71 28.55 C 19.71 28.55 18.6 27.49 18.6 27.49 C 18.51 27.48 18.37 28.08 18.28 28.08 C 18.21 28.08 17.97 28.72 17.9 28.73 C 17.83 28.72 17.7 28.08 17.63 28.08 C 17.54 28.08 17.4 27.48 17.31 27.49 C 17.31 27.49 16.2 28.55 16.2 28.55 C 16.2 28.55 16.86 24.34 16.86 24.34 C 16.86 24.34 15.81 25.49 15.81 25.49 C 15.81 25.49 16.74 22.76 16.74 22.76 Z M 20.42 20.98 C 20.42 20.98 18.84 21.91 17.74 21.91 C 17.74 21.91 17.73 21.91 17.73 21.91 C 17.73 21.91 17.73 21.91 17.73 21.91 C 16.96 21.93 15.04 20.98 15.04 20.98 C 15.04 20.98 15.04 20.98 11.37 22.43 C 11.6 19.36 13.15 17.5 14.47 15.13 C 13.5 3.65 17.52 0.79 17.52 0.79 C 17.52 0.79 21.97 3.65 21 15.13 C 22.32 17.5 23.87 19.36 24.1 22.43 C 20.42 20.98 20.42 20.98 20.42 20.98 Z" />
</svg>